/* XPM */
static char *result[] = {
/* columns rows colors chars-per-pixel */
"32 32 183 2 ",
"   c #8D605F",
".  c #8D615F",
"X  c #8E615E",
"o  c #8E615F",
"O  c #90625D",
"+  c #91635E",
"@  c #94665F",
"#  c #8B5F60",
"$  c #8A5F61",
"%  c #885E62",
"&  c #835D6B",
"*  c #8B6060",
"=  c #8F6462",
"-  c #87616D",
";  c #956760",
":  c #946761",
">  c #956862",
",  c #946864",
"<  c #976B64",
"1  c #966B65",
"2  c #986C62",
"3  c #9B6E63",
"4  c #956C68",
"5  c #9D7165",
"6  c #9B7068",
"7  c #9D736A",
"8  c #A17669",
"9  c #A1776A",
"0  c #A3796B",
"q  c #A47969",
"w  c #A57A6A",
"e  c #A67C6A",
"r  c #A77C6A",
"t  c #A1786E",
"y  c #A27A6F",
"u  c #A67C6D",
"i  c #A67D6D",
"p  c #A97F6C",
"a  c #A37C71",
"s  c #A47D72",
"d  c #AB816D",
"f  c #AC826E",
"g  c #AE846E",
"h  c #AE846F",
"j  c #AB8475",
"k  c #AA8578",
"l  c #AC8778",
"z  c #AC8679",
"x  c #AD897B",
"c  c #B08770",
"v  c #B38A71",
"b  c #B68E74",
"n  c #B78F74",
"m  c #B1817A",
"M  c #B48D79",
"N  c #B18D7E",
"B  c #B18E7F",
"V  c #B89075",
"C  c #BA9377",
"Z  c #B79179",
"A  c #BD9578",
"S  c #BD9678",
"D  c #BE9678",
"F  c #BE9778",
"G  c #C19C7F",
"H  c #C29D7F",
"J  c #C8A27E",
"K  c #C9A47F",
"L  c #B88881",
"P  c #B98C83",
"I  c #B49282",
"U  c #B69586",
"Y  c #BF9389",
"T  c #BD9D8B",
"R  c #BD9E8B",
"E  c #C5948C",
"W  c #C49F8F",
"Q  c #CB9A92",
"!  c #CC9C94",
"~  c #D19F97",
"^  c #C1A38F",
"/  c #D2AE84",
"(  c #D4B085",
")  c #D6B287",
"_  c #D4B38C",
"`  c #D8B588",
"'  c #D9B689",
"]  c #DAB689",
"[  c #DBB889",
"{  c #DBB88A",
"}  c #DCB98A",
"|  c #DDBB8D",
" . c #DEBC8E",
".. c #C4A792",
"X. c #CDA095",
"o. c #C6AA94",
"O. c #C8AC96",
"+. c #C9AE97",
"@. c #CEB194",
"#. c #CBB19A",
"$. c #CFB69D",
"%. c #D6B690",
"&. c #D6B894",
"*. c #DEBE90",
"=. c #DFBE90",
"-. c #DFBF92",
";. c #D1B89F",
":. c #DABE9B",
">. c #CBB4A3",
",. c #D5B3A0",
"<. c #D8B7A3",
"1. c #D3BAA1",
"2. c #D1BCA8",
"3. c #D2BDA8",
"4. c #E0A6A2",
"5. c #E1A9A4",
"6. c #E2A9A4",
"7. c #E3ACA6",
"8. c #E3ADA6",
"9. c #E4AEA8",
"0. c #E5B0A9",
"q. c #E6B1A9",
"w. c #E8B5AC",
"e. c #E9BBAF",
"r. c #EABFB0",
"t. c #DFC196",
"y. c #E0C194",
"u. c #E1C295",
"i. c #E2C498",
"p. c #E2C599",
"a. c #E4C79C",
"s. c #E4C99E",
"d. c #E5CA9F",
"f. c #D8C1A6",
"g. c #D8C2A7",
"h. c #D9C2A7",
"j. c #DBC5A9",
"k. c #DCC6AA",
"l. c #DDC9AC",
"z. c #E5CBA1",
"x. c #E6CCA2",
"c. c #E7CFA6",
"v. c #E8CFA6",
"b. c #E4C5AF",
"n. c #E6D1AF",
"m. c #EAD4AC",
"M. c #EAD4AD",
"N. c #EBD5AE",
"B. c #EBD6AF",
"V. c #E1CEB0",
"C. c #E2CEB1",
"Z. c #E0CDB3",
"A. c #EDCCB7",
"S. c #E4D1B3",
"D. c #E8D7B7",
"F. c #ECD9B2",
"G. c #EDD9B2",
"H. c #EDDAB4",
"J. c #EEDBB6",
"K. c #EEDCB7",
"L. c #EED1B9",
"P. c #EFDDB8",
"I. c #EFDEB8",
"U. c #EFDEB9",
"Y. c #EDDEBD",
"T. c #EEDFBD",
"R. c #EDDEBE",
"E. c #EFDFBE",
"W. c #F0DFBB",
"Q. c #F1DCBE",
"!. c #EFE0BE",
"~. c #F1E1BD",
"^. c #F0E1BE",
"/. c #F1E2BF",
"(. c #F2E2BF",
"). c #F2E3BF",
"_. c #F1E2C0",
"`. c #F1E3C1",
"'. c #F2E4C0",
"]. c #F2E4C1",
"[. c #F3E4C1",
"{. c #F3E5C2",
"}. c None",
/* pixels */
"}.}.}.}.}.}.}.}.}.}.}.}.}.}.}.}.}.}.}.}.}.}.}.}.}.}.}.}.}.}.}.}.",
"}.}.}.}.}.}.}.}.}.}.}.}.}.}.}.}.}.}.}.}.}.}.}.}.}.}.}.}.}.}.}.}.",
"}.}.}.}.}.}.}.}.}.}.}.}.}.}.}.}.}.}.}.}.}.}.}.}.}.}.}.}.}.}.}.}.",
"}.}.}.}.}.}.}.}.}.}.}.}.}.}.}.}.}.}.}.}.}.}.}.}.}.}.}.}.}.}.}.}.",
"}.}.}.}.}.}.}.}.}.}.}.}.}.}.}.}.}.}.}.}.}.}.}.}.}.}.}.}.}.}.}.}.",
"}.}.}.}.}.}.}.}.}.}.}.}.}.}.}.}.}.}.}.}.}.}.}.}.}.}.}.}.}.}.}.}.",
"}.}.}.}.}.}.}.}.}.}.}.}.}.}.}.}.}.}.}.}.}.}.}.}.}.}.}.}.}.}.}.}.",
"}.}.}.}.}.}.}.}.}.}.}.}.}.}.}.}.}.}.}.}.}.}.}.}.}.}.}.}.}.}.}.}.",
"}.}.}.}.}.}.}.}.}.}.}.}.}.}.}.}.}.}.}.}.}.}.}.}.}.}.}.}.}.}.}.}.",
"}.}.}.}.}.}.}.}.}.}.}.}.}.}.}.}.}.}.}.}.}.}.}.}.}.}.}.}.}.}.}.}.",
"}.}.}.}.}.}.}.}.}.}.}.}.}.}.}.}.}.}.}.}.}.}.}.}.}.}.}.}.}.}.}.}.",
"}.}.}.}.}.}.}.}.}.}.}.}.}.}.}.}.}.}.y + }.}.}.< a }.}.}.}.}.}.}.",
"}.}.}.}.}.}.}.}.}.}.}.}.}.}.}.}.}.k D.> }.}.O N C.O }.}.}.}.}.}.",
"}.}.}.}.}.}.}.}.}.}.}.}.}.O O }.}.k D.> O O O N C.O }.}.}.O O }.",
"}.}.}.}.}.}.}.}.}.}.}.}.> 1.h.I O u t.K J J J &.T.f.7 O R h.#.O ",
"}.}.}.}.}.}.}.}.O O O O > D.{.j.+.@.} } } } } a.{.].$.t o.{.k.O ",
"}.}.}.}.}.}.}.g c c M B : b.L.Q.P.x.} } } } u.m.{.{.{.x W L.<.O ",
"}.}.}.}.}.q q / } } s.S.z ! ~ ,.:.} ' H G %.M.{.Y.2.2.U Y ~ E O ",
"}.}.}.}.r } } } } | x.{.E.s 6 6 Z =._ - & >.{.{.Z.& & 3.T O O }.",
"}.}.}.}.r } } } } c.'.{.{.!.T.T.^.)./.R.Y._.{.{.].Y.Y.`.T O }.}.",
"}.}.}.O r } } B.K.~.{.{.{.{.{.{.{.{.{.{.{.A.r.r.r.r.r.r.P O }.}.",
"}.}.v d j N.N.(.{.{.{.W.s.s.I.{.g...{.{.A.e.8.6.w.w.4.0.L O }.}.",
"}.c b w x {.{.{.{.{.P.z.} } d.K.l.^ O._.r.w.9.7.w.w.5.q.L O }.}.",
"O n p O x {.{.{.{.{.H.p.} } i.F.{.V.I ;.X.Q Q Q Q Q Q Q m }.}.}.",
"O O }.}.l P.P.P.P.~.{.U.y.y.J.{.{.).n.8 5 ; O O O O O O }.}.}.}.",
"}.}.}.}.r } } } } v.[.[.[.[.[.[.[.G.} } } d O }.}.}.}.}.}.}.}.}.",
"}.}.}.}.r } } } }  .-.-.-.-.-.-.-.*.} } } d O }.}.}.}.}.}.}.}.}.",
"}.}.}.}.4 h { } V e e e p ) } S e e f ] } d * }.}.}.}.}.}.}.}.}.",
"}.}.}.}.}.3 [ } p   % # @ ( } c X * 2 ` } d $ }.}.}.}.}.}.}.}.}.",
"}.}.}.}.}.1 D F 9 }.}.}.= C F i }.}., A F 0 }.}.}.}.}.}.}.}.}.}.",
"}.}.}.}.}.}.o X }.}.}.}.}.  X }.}.}.}.. X }.}.}.}.}.}.}.}.}.}.}.",
"}.}.}.}.}.}.}.}.}.}.}.}.}.}.}.}.}.}.}.}.}.}.}.}.}.}.}.}.}.}.}.}."
};
