/* XPM */
static char *_9eb289b9bea47c6bff16249f0a660e7QSyHIL6iydXkzS1s[] = {
/* columns rows colors chars-per-pixel */
"32 32 187 2 ",
"   c #C0D470",
".  c #A4C263",
"X  c #A27A6F",
"o  c #91635E",
"O  c #976B64",
"+  c #A37C71",
"@  c #AA8578",
"#  c #E8D7B7",
"$  c #956862",
"%  c #90625D",
"&  c #B18D7E",
"*  c #E2CEB1",
"=  c #D3BAA1",
"-  c #D9C2A7",
";  c #B49282",
":  c #A67C6D",
">  c #DFC196",
",  c #C9A47F",
"<  c #C8A27E",
"1  c #D6B894",
"2  c #EEDFBD",
"3  c #D8C1A6",
"4  c #9D736A",
"5  c #BD9E8B",
"6  c #CBB19A",
"7  c #F3E5C2",
"8  c #DBC5A9",
"9  c #C9AE97",
"0  c #CEB194",
"q  c #DCB98A",
"w  c #E4C79C",
"e  c #F2E4C1",
"r  c #CFB69D",
"t  c #A1786E",
"y  c #C6AA94",
"u  c #DCC6AA",
"i  c #AE846E",
"p  c #B08770",
"a  c #B48D79",
"s  c #B18E7F",
"d  c #946761",
"f  c #E4C5AF",
"g  c #EED1B9",
"h  c #F1DCBE",
"j  c #EFDDB8",
"k  c #E6CCA2",
"l  c #B9947C",
"z  c #CCA884",
"x  c #E1C295",
"c  c #EAD4AC",
"v  c #EADABB",
"b  c #BFA599",
"n  c #ECDCBC",
"m  c #AD897B",
"M  c #C49F8F",
"N  c #D8B7A3",
"B  c #A47969",
"V  c #D2AE84",
"C  c #E4C99E",
"Z  c #E4D1B3",
"A  c #AC8679",
"S  c #CC9C94",
"D  c #D19F97",
"F  c #D5B3A0",
"G  c #DABE9B",
"H  c #8A6269",
"J  c #BB9984",
"K  c #EAD4AD",
"L  c #DDCBB1",
"P  c #774F62",
"I  c #E1D0B4",
"U  c #C0A18E",
"Y  c #BF9389",
"T  c #C5948C",
"R  c #A77C6A",
"E  c #DDBB8D",
"W  c #EFDFBE",
"Q  c #A47D72",
"!  c #9B7068",
"~  c #B79179",
"^  c #DFBE90",
"/  c #957072",
"(  c #CBB4A3",
")  c #E0CDB3",
"_  c #855F6C",
"`  c #E3D2B6",
"'  c #BD9D8B",
"]  c #E7CFA6",
"[  c #F2E4C0",
"{  c #EFE0BE",
"}  c #F0E1BE",
"|  c #F2E3BF",
" . c #EEDFBE",
".. c #F1E2C0",
"X. c #EDDEBE",
"o. c #EBD6AF",
"O. c #EEDCB7",
"+. c #F1E1BD",
"@. c #EDCCB7",
"#. c #EABFB0",
"$. c #B98C83",
"%. c #B38A71",
"&. c #AB816D",
"*. c #AB8475",
"=. c #EBD5AE",
"-. c #F2E2BF",
";. c #F0DFBB",
":. c #EFDEB8",
">. c #D8C2A7",
",. c #C4A792",
"<. c #E9BBAF",
"1. c #E3ADA6",
"2. c #E2A9A4",
"3. c #E8B5AC",
"4. c #E0A6A2",
"5. c #E5B0A9",
"6. c #B88881",
"7. c #B68E74",
"8. c #A57A6A",
"9. c #E5CBA1",
"0. c #E5CA9F",
"q. c #DDC9AC",
"w. c #C1A38F",
"e. c #C8AC96",
"r. c #E4AEA8",
"t. c #E3ACA6",
"y. c #E1A9A4",
"u. c #E6B1A9",
"i. c #B78F74",
"p. c #A97F6C",
"a. c #EDDAB4",
"s. c #E2C599",
"d. c #E2C498",
"f. c #ECD9B2",
"g. c #E1CEB0",
"h. c #D1B89F",
"j. c #CDA095",
"k. c #CB9A92",
"l. c #B1817A",
"z. c #AC8778",
"x. c #EFDEB9",
"c. c #E0C194",
"v. c #EEDBB6",
"b. c #E6D1AF",
"n. c #A17669",
"m. c #9D7165",
"M. c #956760",
"N. c #D2E077",
"B. c #E8CFA6",
"V. c #F3E4C1",
"C. c #EDD9B2",
"Z. c #DEBC8E",
"A. c #DFBF92",
"S. c #DEBE90",
"D. c #956C68",
"F. c #AE846F",
"G. c #DBB88A",
"H. c #B89075",
"J. c #A67C6A",
"K. c #D6B287",
"L. c #BD9678",
"P. c #AC826E",
"I. c #DAB689",
"U. c #8B6060",
"Y. c #9B6E63",
"T. c #DBB889",
"R. c #8D605F",
"E. c #885E62",
"W. c #8B5F60",
"Q. c #94665F",
"!. c #D4B085",
"~. c #8E615E",
"^. c #986C62",
"/. c #D8B588",
"(. c #8A5F61",
"). c #966B65",
"_. c #BE9678",
"`. c #BE9778",
"'. c #A1776A",
"]. c #8F6462",
"[. c #BA9377",
"{. c #A67D6D",
"}. c #946864",
"|. c #BD9578",
" X c #A3796B",
".X c #8E615F",
"XX c #8D615F",
/* pixels */
"                                                                ",
"                                                                ",
"      .   .                                                     ",
"        .                               . . . .                 ",
"                                      . . . . . . .             ",
"                                      . . . . . . . .           ",
"                                      . . . . . . . .           ",
"                                      . . . . . . . .           ",
"                                        . . . . . .             ",
"                      .   .                                     ",
"                        .                           . . . .     ",
"                                    X o       O + . . . . . .   ",
"                                  @ # $     % & * % . . . . .   ",
"          .   .           % %     @ # $ % % % & * % . . . % %   ",
"            .           $ = - ; % : > , < < < 1 2 3 4 % 5 - 6 % ",
"                % % % % $ # 7 8 9 0 q q q q q w 7 e r t y 7 u % ",
"              i p p a s d f g h j k q q l z x c v b n m M g N % ",
"          B B V q q C Z A S D F G q q q H J K 7 L P I U Y D T % ",
"        R q q q q E k 7 W Q ! ! ~ ^ ^ ^ / ( 7 7 ) _ ` 7 ' % %   ",
"        R q q q q ] [ 7 7 { 2 2 } | | |  ...7 7 e X.e 7 ' %     ",
"      % R q q o.O.+.7 7 7 7 7 7 7 7 7 7 7 @.#.#.#.#.#.#.$.%     ",
"    %.&.*.=.=.-.7 7 7 ;.C C :.7 >.,.7 7 @.<.1.2.3.3.4.5.6.%     ",
"  p 7.8.m 7 7 7 7 7 j 9.q q 0.O.q.w.e...#.3.r.t.3.3.y.u.6.%     ",
"% i.p.% m 7 7 7 7 7 a.s.q q d.f.7 g.; h.j.k.k.k.k.k.k.k.l.      ",
"% %     z.j j j j +.7 x.c.c.v.7 7 | b.n.m.M.% % % % % % N.N.    ",
"        R q q q q B.V.V.V.V.V.V.V.C.q q q &.%   N.N.N.N.N.N.N.  ",
"        R q q q q Z.A.A.A.A.A.A.A.S.q q q &.%   N.N.N.N.N.N.N.  ",
"        D.F.G.q H.J.J.J.p.K.q L.J.J.P.I.q &.U.    N.N.N.N.N.    ",
"          Y.T.q p.R.E.W.Q.!.q p ~.U.^./.q &.(.                  ",
"          )._.`.'.      ].[.`.{.    }.|.`. XN.                  ",
"            .X~.          R.~.        XX~.N.                    ",
"                                                                "
};
