/* XPM */
static char *result[] = {
/* columns rows colors chars-per-pixel */
"32 32 184 2 ",
"   c #774F62",
".  c #8D605F",
"X  c #8D615F",
"o  c #8E615E",
"O  c #8E615F",
"+  c #90625D",
"@  c #91635E",
"#  c #94665F",
"$  c #8B5F60",
"%  c #8A5F61",
"&  c #885E62",
"*  c #855F6C",
"=  c #8B6060",
"-  c #8F6462",
";  c #8A6269",
":  c #956760",
">  c #946761",
",  c #956862",
"<  c #946864",
"1  c #976B64",
"2  c #966B65",
"3  c #986C62",
"4  c #9B6E63",
"5  c #956C68",
"6  c #9D7165",
"7  c #9B7068",
"8  c #9D736A",
"9  c #957072",
"0  c #A17669",
"q  c #A1776A",
"w  c #A3796B",
"e  c #A47969",
"r  c #A57A6A",
"t  c #A67C6A",
"y  c #A77C6A",
"u  c #A1786E",
"i  c #A27A6F",
"p  c #A67C6D",
"a  c #A67D6D",
"s  c #A97E6C",
"d  c #A97F6C",
"f  c #A37C71",
"g  c #A47D72",
"h  c #AB816D",
"j  c #AC826E",
"k  c #AD846E",
"l  c #AE846E",
"z  c #AE846F",
"x  c #AB8475",
"c  c #AA8578",
"v  c #AC8778",
"b  c #AC8679",
"n  c #AD897B",
"m  c #B08770",
"M  c #B1817A",
"N  c #B48D79",
"B  c #B18D7E",
"V  c #B18E7F",
"C  c #B89075",
"Z  c #BA9377",
"A  c #B79179",
"S  c #BD9578",
"D  c #BD9678",
"F  c #BE9678",
"G  c #BE9778",
"H  c #B9947C",
"J  c #C8A27E",
"K  c #C9A47F",
"L  c #B88881",
"P  c #B98C83",
"I  c #B49282",
"U  c #BB9984",
"Y  c #BF9389",
"T  c #BD9D8B",
"R  c #BD9E8B",
"E  c #BFA599",
"W  c #C5948C",
"Q  c #C49F8F",
"!  c #CB9A92",
"~  c #CC9C94",
"^  c #D19F97",
"/  c #CCA884",
"(  c #C0A18E",
")  c #C1A38F",
"_  c #D2AE84",
"`  c #D4B085",
"'  c #D6B287",
"]  c #D8B588",
"[  c #DAB689",
"{  c #DBB889",
"}  c #DBB88A",
"|  c #DCB98A",
" . c #DDBB8D",
".. c #DEBC8E",
"X. c #C4A792",
"o. c #CDA095",
"O. c #C6AA94",
"+. c #C8AC96",
"@. c #C9AE97",
"#. c #CEB194",
"$. c #CBB19A",
"%. c #CFB69D",
"&. c #D6B894",
"*. c #DEBE90",
"=. c #DFBE90",
"-. c #DFBF92",
";. c #D1B89F",
":. c #DABE9B",
">. c #CBB4A3",
",. c #D5B3A0",
"<. c #D8B7A3",
"1. c #D3BAA1",
"2. c #E0A6A2",
"3. c #E1A9A4",
"4. c #E2A9A4",
"5. c #E3ACA6",
"6. c #E3ADA6",
"7. c #E4AEA8",
"8. c #E5B0A9",
"9. c #E6B1A9",
"0. c #E8B5AC",
"q. c #E9BBAF",
"w. c #EABFB0",
"e. c #DFC196",
"r. c #E0C194",
"t. c #E1C295",
"y. c #E2C498",
"u. c #E2C599",
"i. c #E4C79C",
"p. c #E4C99E",
"a. c #E5CA9F",
"s. c #D8C1A6",
"d. c #D8C2A7",
"f. c #D9C2A7",
"g. c #DBC5A9",
"h. c #DCC6AA",
"j. c #DDC9AC",
"k. c #DDCBB1",
"l. c #E5CBA1",
"z. c #E6CCA2",
"x. c #E7CFA6",
"c. c #E8CFA6",
"v. c #E4C5AF",
"b. c #E6D1AF",
"n. c #EAD4AC",
"m. c #EAD4AD",
"M. c #EBD5AE",
"N. c #EBD6AF",
"B. c #E1CEB0",
"V. c #E2CEB1",
"C. c #E0CDB3",
"Z. c #EDCCB7",
"A. c #E4D1B3",
"S. c #E1D0B4",
"D. c #E3D2B6",
"F. c #E8D7B7",
"G. c #ECD9B2",
"H. c #EDD9B2",
"J. c #EDDAB4",
"K. c #EEDBB6",
"L. c #EEDCB7",
"P. c #EED1B9",
"I. c #EADABB",
"U. c #EFDDB8",
"Y. c #EFDEB8",
"T. c #EFDEB9",
"R. c #ECDCBC",
"E. c #EEDFBD",
"W. c #EDDEBE",
"Q. c #EEDFBE",
"!. c #EFDFBE",
"~. c #F0DFBB",
"^. c #F1DCBE",
"/. c #EFE0BE",
"(. c #F1E1BD",
"). c #F0E1BE",
"_. c #F2E2BF",
"`. c #F2E3BF",
"'. c #F1E2C0",
"]. c #F2E4C0",
"[. c #F2E4C1",
"{. c #F3E4C1",
"}. c #F3E5C2",
"|. c None",
/* pixels */
"|.|.|.|.|.|.|.|.|.|.|.|.|.|.|.|.|.|.|.|.|.|.|.|.|.|.|.|.|.|.|.|.",
"|.|.|.|.|.|.|.|.|.|.|.|.|.|.|.|.|.|.|.|.|.|.|.|.|.|.|.|.|.|.|.|.",
"|.|.|.|.|.|.|.|.|.|.|.|.|.|.|.|.|.|.|.|.|.|.|.|.|.|.|.|.|.|.|.|.",
"|.|.|.|.|.|.|.|.|.|.|.|.|.|.|.|.|.|.|.|.|.|.|.|.|.|.|.|.|.|.|.|.",
"|.|.|.|.|.|.|.|.|.|.|.|.|.|.|.|.|.|.|.|.|.|.|.|.|.|.|.|.|.|.|.|.",
"|.|.|.|.|.|.|.|.|.|.|.|.|.|.|.|.|.|.|.|.|.|.|.|.|.|.|.|.|.|.|.|.",
"|.|.|.|.|.|.|.|.|.|.|.|.|.|.|.|.|.|.|.|.|.|.|.|.|.|.|.|.|.|.|.|.",
"|.|.|.|.|.|.|.|.|.|.|.|.|.|.|.|.|.|.|.|.|.|.|.|.|.|.|.|.|.|.|.|.",
"|.|.|.|.|.|.|.|.|.|.|.|.|.|.|.|.|.|.|.|.|.|.|.|.|.|.|.|.|.|.|.|.",
"|.|.|.|.|.|.|.|.|.|.|.|.|.|.|.|.|.|.|.|.|.|.|.|.|.|.|.|.|.|.|.|.",
"|.|.|.|.|.|.|.|.|.|.|.|.|.|.|.|.|.|.|.|.|.|.|.|.|.|.|.|.|.|.|.|.",
"|.|.|.|.|.|.|.|.|.|.|.|.|.|.|.|.|.|.i @ |.|.|.1 f |.|.|.|.|.|.|.",
"|.|.|.|.|.|.|.|.|.|.|.|.|.|.|.|.|.c F., |.|.+ B V.+ |.|.|.|.|.|.",
"|.|.|.|.|.|.|.|.|.|.|.|.|.+ + |.|.c F., + + + B V.+ |.|.|.+ + |.",
"|.|.|.|.|.|.|.|.|.|.|.|., 1.f.I + p e.K J J J &.E.s.8 + R f.$.+ ",
"|.|.|.|.|.|.|.|.+ + + + , F.}.g.@.#.| | | | | i.}.[.%.u O.}.h.+ ",
"|.|.|.|.|.|.|.l m m N V > v.P.^.U.z.| | H / t.n.I.E R.n Q P.<.+ ",
"|.|.|.|.|.e e _ | | p.A.b ~ ^ ,.:.| | | ; U m.}.k.  S.( Y ^ W + ",
"|.|.|.|.y | | | |  .z.}.!.g 7 7 A =.=.=.9 >.}.}.C.* D.}.T + + |.",
"+ + |.|.y | | | | x.].}.}./.E.E.).`.`.`.Q.'.}.}.[.W.[.}.T + |.|.",
"+ G h + y | | N.L.(.}.}.}.}.}.}.}.}.}.}.}.Z.w.w.w.w.w.w.P + |.|.",
"|.s C h x M.M._.}.}.}.~.p.p.Y.}.d.X.}.}.Z.q.6.4.0.0.2.8.L + |.|.",
"|.|.k r n }.}.}.}.}.U.l.| | a.L.j.) +.'.w.0.7.5.0.0.3.9.L + |.|.",
"|.|.|.+ n }.}.}.}.}.J.u.| | y.G.}.B.I ;.o.! ! ! ! ! ! ! M |.|.|.",
"|.|.|.|.v U.U.U.U.(.}.T.r.r.K.}.}.`.b.0 6 : + + + + + + |.|.|.|.",
"|.|.|.|.y | | | | c.{.{.{.{.{.{.{.H.| | | h + |.|.|.|.|.|.|.|.|.",
"|.|.|.|.y | | | | ..-.-.-.-.-.-.-.*.| | | h + |.|.|.|.|.|.|.|.|.",
"|.|.|.|.5 z } | C t t t d ' | D t t j [ | h = |.|.|.|.|.|.|.|.|.",
"|.|.|.|.|.4 { | d . & $ # ` | m o = 3 ] | h % |.|.|.|.|.|.|.|.|.",
"|.|.|.|.|.2 F G q |.|.|.- Z G a |.|.< S G w |.|.|.|.|.|.|.|.|.|.",
"|.|.|.|.|.|.O o |.|.|.|.|.. o |.|.|.|.X o |.|.|.|.|.|.|.|.|.|.|.",
"|.|.|.|.|.|.|.|.|.|.|.|.|.|.|.|.|.|.|.|.|.|.|.|.|.|.|.|.|.|.|.|."
};
