/* XPM */
static char *result[] = {
/* columns rows colors chars-per-pixel */
"32 32 185 2 ",
"   c #774F62",
".  c #8D605F",
"X  c #8D615F",
"o  c #8E615E",
"O  c #8E615F",
"+  c #90625D",
"@  c #91635E",
"#  c #94665F",
"$  c #8B5F60",
"%  c #8A5F61",
"&  c #885E62",
"*  c #855F6C",
"=  c #8B6060",
"-  c #8F6462",
";  c #8A6269",
":  c #956760",
">  c #946761",
",  c #956862",
"<  c #946864",
"1  c #976B64",
"2  c #966B65",
"3  c #986C62",
"4  c #9B6E63",
"5  c #956C68",
"6  c #9D7165",
"7  c #9B7068",
"8  c #9D736A",
"9  c #957072",
"0  c #A17669",
"q  c #A1776A",
"w  c #A3796B",
"e  c #A47969",
"r  c #A57A6A",
"t  c #A67C6A",
"y  c #A77C6A",
"u  c #A1786E",
"i  c #A27A6F",
"p  c #A67C6D",
"a  c #A67D6D",
"s  c #A97F6C",
"d  c #A37C71",
"f  c #A47D72",
"g  c #AB816D",
"h  c #AC826E",
"j  c #AE846E",
"k  c #AE846F",
"l  c #AB8475",
"z  c #AA8578",
"x  c #AC8778",
"c  c #AC8679",
"v  c #AD897B",
"b  c #B08770",
"n  c #B38A71",
"m  c #B68E74",
"M  c #B78F74",
"N  c #B1817A",
"B  c #B48D79",
"V  c #B18D7E",
"C  c #B18E7F",
"Z  c #B89075",
"A  c #BA9377",
"S  c #B79179",
"D  c #BD9578",
"F  c #BD9678",
"G  c #BE9678",
"H  c #BE9778",
"J  c #B9947C",
"K  c #C8A27E",
"L  c #C9A47F",
"P  c #B88881",
"I  c #B98C83",
"U  c #B49282",
"Y  c #BB9984",
"T  c #BF9389",
"R  c #BD9D8B",
"E  c #BD9E8B",
"W  c #BFA599",
"Q  c #C5948C",
"!  c #C49F8F",
"~  c #CB9A92",
"^  c #CC9C94",
"/  c #D19F97",
"(  c #CCA884",
")  c #C0A18E",
"_  c #C1A38F",
"`  c #D2AE84",
"'  c #D4B085",
"]  c #D6B287",
"[  c #D8B588",
"{  c #DAB689",
"}  c #DBB889",
"|  c #DBB88A",
" . c #DCB98A",
".. c #DDBB8D",
"X. c #DEBC8E",
"o. c #C4A792",
"O. c #CDA095",
"+. c #C6AA94",
"@. c #C8AC96",
"#. c #C9AE97",
"$. c #CEB194",
"%. c #CBB19A",
"&. c #CFB69D",
"*. c #D6B894",
"=. c #DEBE90",
"-. c #DFBE90",
";. c #DFBF92",
":. c #D1B89F",
">. c #DABE9B",
",. c #CBB4A3",
"<. c #D5B3A0",
"1. c #D8B7A3",
"2. c #D3BAA1",
"3. c #E0A6A2",
"4. c #E1A9A4",
"5. c #E2A9A4",
"6. c #E3ACA6",
"7. c #E3ADA6",
"8. c #E4AEA8",
"9. c #E5B0A9",
"0. c #E6B1A9",
"q. c #E8B5AC",
"w. c #E9BBAF",
"e. c #EABFB0",
"r. c #DFC196",
"t. c #E0C194",
"y. c #E1C295",
"u. c #E2C498",
"i. c #E2C599",
"p. c #E4C79C",
"a. c #E4C99E",
"s. c #E5CA9F",
"d. c #D8C1A6",
"f. c #D8C2A7",
"g. c #D9C2A7",
"h. c #DBC5A9",
"j. c #DCC6AA",
"k. c #DDC9AC",
"l. c #DDCBB1",
"z. c #E5CBA1",
"x. c #E6CCA2",
"c. c #E7CFA6",
"v. c #E8CFA6",
"b. c #E4C5AF",
"n. c #E6D1AF",
"m. c #EAD4AC",
"M. c #EAD4AD",
"N. c #EBD5AE",
"B. c #EBD6AF",
"V. c #E1CEB0",
"C. c #E2CEB1",
"Z. c #E0CDB3",
"A. c #EDCCB7",
"S. c #E4D1B3",
"D. c #E1D0B4",
"F. c #E3D2B6",
"G. c #E8D7B7",
"H. c #ECD9B2",
"J. c #EDD9B2",
"K. c #EDDAB4",
"L. c #EEDBB6",
"P. c #EEDCB7",
"I. c #EED1B9",
"U. c #EADABB",
"Y. c #EFDDB8",
"T. c #EFDEB8",
"R. c #EFDEB9",
"E. c #ECDCBC",
"W. c #EEDFBD",
"Q. c #EDDEBE",
"!. c #EEDFBE",
"~. c #EFDFBE",
"^. c #F0DFBB",
"/. c #F1DCBE",
"(. c #EFE0BE",
"). c #F1E1BD",
"_. c #F0E1BE",
"`. c #F2E2BF",
"'. c #F2E3BF",
"]. c #F1E2C0",
"[. c #F2E4C0",
"{. c #F2E4C1",
"}. c #F3E4C1",
"|. c #F3E5C2",
" X c None",
/* pixels */
" X X X X X X X X X X X X X X X X X X X X X X X X X X X X X X X X",
" X X X X X X X X X X X X X X X X X X X X X X X X X X X X X X X X",
" X X X X X X X X X X X X X X X X X X X X X X X X X X X X X X X X",
" X X X X X X X X X X X X X X X X X X X X X X X X X X X X X X X X",
" X X X X X X X X X X X X X X X X X X X X X X X X X X X X X X X X",
" X X X X X X X X X X X X X X X X X X X X X X X X X X X X X X X X",
" X X X X X X X X X X X X X X X X X X X X X X X X X X X X X X X X",
" X X X X X X X X X X X X X X X X X X X X X X X X X X X X X X X X",
" X X X X X X X X X X X X X X X X X X X X X X X X X X X X X X X X",
" X X X X X X X X X X X X X X X X X X X X X X X X X X X X X X X X",
" X X X X X X X X X X X X X X X X X X X X X X X X X X X X X X X X",
" X X X X X X X X X X X X X X X X X Xi @  X X X1 d  X X X X X X X",
" X X X X X X X X X X X X X X X X Xz G.,  X X+ V C.+  X X X X X X",
" X X X X X X X X X X X X X+ +  X Xz G., + + + V C.+  X X X+ +  X",
" X X X X X X X X X X X X, 2.g.U + p r.L K K K *.W.d.8 + E g.%.+ ",
" X X X X X X X X+ + + + , G.|.h.#.$. . . . . .p.|.{.&.u +.|.j.+ ",
" X X X X X X Xj b b B C > b.I./.Y.x. . .J ( y.m.U.W E.v ! I.1.+ ",
" X X X X Xe e `  . .a.S.c ^ / <.>. . . .; Y M.|.l.  D.) T / Q + ",
" X X X Xy  . . . ...x.|.~.f 7 7 S -.-.-.9 ,.|.|.Z.* F.|.R + +  X",
" X X X Xy  . . . .c.[.|.|.(.W.W._.'.'.'.!.].|.|.{.Q.{.|.R +  X X",
" X X X+ y  . .B.P.).|.|.|.|.|.|.|.|.|.|.|.A.e.e.e.e.e.e.I +  X X",
" X Xn g l N.N.`.|.|.|.^.a.a.T.|.f.o.|.|.A.w.7.5.q.q.3.9.P +  X X",
" Xb m r v |.|.|.|.|.Y.z. . .s.P.k._ @.].e.q.8.6.q.q.4.0.P +  X X",
"+ M s + v |.|.|.|.|.K.i. . .u.H.|.V.U :.O.~ ~ ~ ~ ~ ~ ~ N  X X X",
"+ +  X Xx Y.Y.Y.Y.).|.R.t.t.L.|.|.'.n.0 6 : + + + + + +  X X X X",
" X X X Xy  . . . .v.}.}.}.}.}.}.}.J. . . .g +  X X X X X X X X X",
" X X X Xy  . . . .X.;.;.;.;.;.;.;.=. . . .g +  X X X X X X X X X",
" X X X X5 k |  .Z t t t s ]  .F t t h {  .g =  X X X X X X X X X",
" X X X X X4 }  .s . & $ # '  .b o = 3 [  .g %  X X X X X X X X X",
" X X X X X2 G H q  X X X- A H a  X X< D H w  X X X X X X X X X X",
" X X X X X XO o  X X X X X. o  X X X XX o  X X X X X X X X X X X",
" X X X X X X X X X X X X X X X X X X X X X X X X X X X X X X X X"
};
