/* XPM */
static char *e63c8056ee1f433aa2ac727f5299be88DdWLuhPgxIcPn4tH[] = {
/* columns rows colors chars-per-pixel */
"32 32 116 2 ",
"   c #C0D470",
".  c #5C4E92",
"X  c #BACD6C",
"o  c #726599",
"O  c #7F749D",
"+  c #82779E",
"@  c #CDC9B5",
"#  c #81739C",
"$  c #CBBEB1",
"%  c #F0E3BB",
"&  c #F1E7BC",
"*  c #F2EEBF",
"=  c #CDC9B4",
"-  c #82779D",
";  c #CBBDB1",
":  c #806C9A",
">  c #C7A7A9",
",  c #EBC4B1",
"<  c #EDD0B5",
"1  c #806B9A",
"2  c #7F6899",
"3  c #C59BA6",
"4  c #E8B5AC",
"5  c #D5D1B9",
"6  c #9A90AC",
"7  c #7C70A5",
"8  c #D5D2B9",
"9  c #C59BA5",
"0  c #7F6898",
"q  c #E5E2C3",
"w  c #CAC3C8",
"e  c #BDB3CB",
"r  c #EDEBC8",
"t  c #E2DCD7",
"y  c #DDD5DE",
"u  c #E3DCD6",
"i  c #EEEBC7",
"p  c #F3F2C0",
"a  c #A4C263",
"s  c #EFEDC6",
"d  c #E7E2D1",
"f  c #F2F0C2",
"g  c #EAE8BD",
"h  c #D7D3B7",
"j  c #9E96A6",
"k  c #82759E",
"l  c #CDC4B5",
"z  c #F3EBC1",
"x  c #F3EDC1",
"c  c #F3F0C0",
"v  c #82729E",
"b  c #CDBAB7",
"n  c #F3DEC4",
"m  c #F3E3C3",
"M  c #7F6E9E",
"N  c #B7A1B1",
"B  c #CDB5B8",
"V  c #CFBCB9",
"C  c #D2CABA",
"Z  c #D4D1BA",
"A  c #B6A1B1",
"S  c #726299",
"D  c #82709F",
"F  c #8778A3",
"G  c #9087AB",
"H  c #958EAF",
"J  c #716299",
"K  c #6E619D",
"L  c #7A6DA4",
"P  c #7E72A3",
"I  c #80759F",
"U  c #7F75A1",
"Y  c #7970A7",
"T  c #766DAA",
"R  c #7D74A7",
"E  c #8C83A1",
"W  c #948BA2",
"Q  c #958DAB",
"!  c #8D86AE",
"~  c #7E75AB",
"^  c #A99FC0",
"/  c #C1B9C5",
"(  c #C9C4BA",
")  c #B7B2B2",
"_  c #8C84AD",
"`  c #B7AE8E",
"'  c #CFC792",
"]  c #D2CEAD",
"[  c #BCB8B6",
"{  c #B8B2B2",
"}  c #7A6DA3",
"|  c #DCD9BC",
" . c #ADA7B4",
".. c #958EB0",
"X. c #ABA3A2",
"o. c #D5CC86",
"O. c #ECE486",
"+. c #EFEBA0",
"@. c #DAD6AE",
"#. c #ACA6AF",
"$. c #EBEABF",
"%. c #D4D1BB",
"&. c #D9D5AA",
"*. c #E4DD89",
"=. c #EBE27C",
"-. c #ECE485",
";. c #E6E096",
":. c #D2E077",
">. c #C9C3BA",
",. c #F1EFB2",
"<. c #EEE898",
"1. c #ECE58A",
"2. c #F1EFB3",
"3. c #7E71A3",
"4. c #F2F1BC",
"5. c #F1EEAE",
/* pixels */
"          . . . . . . . .             . . . . . . . . X         ",
"      . . o O + + + + O o . .     . . o O + + + + O o . .       ",
"      . . O   @ @ @ @   O . .     . . O   @ @ @ @   O . .       ",
"      . . # $ % % & * = - . . . . . . + @ * & % % ; # . .       ",
"      . . : > , , < & = - . . . . . . + @ & < , , > 1 . .       ",
"      . . 2 3 4 4 , % 5 6 7 7 7 7 7 7 6 8 % , 4 4 9 0 . .       ",
"      . . 2 3 4 4 , % q w e e e e e e w q % , 4 4 9 0 . .       ",
"      . . : > , , < & r t y y y y y y u i & < , , > 1 . .       ",
"      . . # $ % % & * r t y y y y y y u i * & % % ; # . .       ",
"      . . + @ p p p p r t y y y y y y u i p p p p = - . .       ",
"      . . + @ p p p p r t y y y y y y u i p p p p = - . . a     ",
"  . . . . + @ p p p p s d u u u u u u d s p p p p = - . . . .   ",
"  . . . . + @ p p p p f s i i i i i i s f p p p p = - . . . .   ",
"  . . . . + @ g h h g p p p p p p p p p p g h h g = - . . . .   ",
"  . . . . + @ h j j h p p p p p p p p p p h j j h = - . . . .   ",
"  . . . . + @ h j j h p p p p p p p p p p h j j h = - . . . .   ",
"  . . . . + @ g h h g p p p p p p p p p p g h h g = - . . . .   ",
"  . . . . k l z z x c p p p p p p p p p p c x z z l k . . . .   ",
"  . . . . v b n n m x p p p p p p p p p p x m n n b v . . . .   ",
"      . . M N B B V C Z Z Z Z Z Z Z Z Z Z C V B B A M . .       ",
"      . . S M D D F G H H H H H H H H H H G F D D M J . .       ",
"      . . K L P I U Y T T R E W Q ! ~ T T Y U I P L K . .       ",
"      . . L ^ / ( ) _ T T E ` ' ] [ ! T T _ { ( / ^ } . .       ",
"      . . 7 e u i |  .....X.o.O.+.@.#..... .| r t e 7 . .       ",
"      . . 7 e u i $.| %.%.&.*.=.-.;.@.%.%.| $.r t e 7 . . :.    ",
"      . . L ^ / >.h g p p ,.<.1.1.<.2.p p g h >./ ^ } . . :.:.  ",
"      . . K } 3.I j h p p 4.2.5.5.2.4.p p h j I 3.} K . . :.:.  ",
"          . . . . I ( r r q 5 = = 5 q r r >.I . . . . :.:.:.    ",
"          . . . . P / t t w 6 - - 6 w t t / 3.. . . .           ",
"              . . L ^ e e ^ L . . L ^ e e ^ } . .               ",
"              . . K } 7 7 } K . . K } 7 7 } K . .               ",
"                  . . . . . .     . . . . . .                   "
};
