/* XPM */
static char *_e400b9315e84a5af9571487b80680148rbW8lpnSLR2LBGn[] = {
/* columns rows colors chars-per-pixel */
"32 32 126 2 ",
"   c black",
".  c #5C4E92",
"X  c #5C4E92",
"o  c #5C4E92",
"O  c #5C4E92",
"+  c #5C4E92",
"@  c #726599",
"#  c #7F749D",
"$  c #82779E",
"%  c #726599",
"&  c #5C4E92",
"*  c None",
"=  c #CDC9B5",
"-  c #5C4E92",
";  c #81739C",
":  c #CBBEB1",
">  c #F0E3BB",
",  c #F1E7BC",
"<  c #F2EEBF",
"1  c #CDC9B4",
"2  c #82779D",
"3  c #5C4E92",
"4  c #5C4E92",
"5  c #5C4E92",
"6  c #CBBDB1",
"7  c #806C9A",
"8  c #C7A7A9",
"9  c #EBC4B1",
"0  c #EDD0B5",
"q  c #5C4E92",
"w  c #806B9A",
"e  c #7F6899",
"r  c #C59BA6",
"t  c #E8B5AC",
"y  c #D5D1B9",
"u  c #9A90AC",
"i  c #7C70A5",
"p  c #D5D2B9",
"a  c #C59BA5",
"s  c #7F6898",
"d  c #E5E2C3",
"f  c #CAC3C8",
"g  c #BDB3CB",
"h  c #EDEBC8",
"j  c #E2DCD7",
"k  c #DDD5DE",
"l  c #E3DCD6",
"z  c #EEEBC7",
"x  c #F3F2C0",
"c  c #EFEDC6",
"v  c #E7E2D1",
"b  c #F2F0C2",
"n  c #EAE8BD",
"m  c #D7D3B7",
"M  c #9E96A6",
"N  c #82759E",
"B  c #CDC4B5",
"V  c #F3EBC1",
"C  c #F3EDC1",
"Z  c #F3F0C0",
"A  c #82729E",
"S  c #CDBAB7",
"D  c #F3DEC4",
"F  c #F3E3C3",
"G  c #7F6E9E",
"H  c #B7A1B1",
"J  c #CDB5B8",
"K  c #CFBCB9",
"L  c #D2CABA",
"P  c #D4D1BA",
"I  c #B6A1B1",
"U  c #726299",
"Y  c #82709F",
"T  c #8778A3",
"R  c #9087AB",
"E  c #958EAF",
"W  c #716299",
"Q  c #6E619D",
"!  c #7A6DA4",
"~  c #7E72A3",
"^  c #80759F",
"/  c #7F75A1",
"(  c #7970A7",
")  c #766DAA",
"_  c #7D74A7",
"`  c #8C83A1",
"'  c #948BA2",
"]  c #958DAB",
"[  c #8D86AE",
"{  c #7E75AB",
"}  c #A99FC0",
"|  c #C1B9C5",
" . c #C9C4BA",
".. c #B7B2B2",
"X. c #8C84AD",
"o. c #B7AE8E",
"O. c #CFC792",
"+. c #D2CEAD",
"@. c #BCB8B6",
"#. c #B8B2B2",
"$. c #7A6DA3",
"%. c #DCD9BC",
"&. c #ADA7B4",
"*. c #958EB0",
"=. c #ABA3A2",
"-. c #D5CC86",
";. c #ECE486",
":. c #EFEBA0",
">. c #DAD6AE",
",. c #ACA6AF",
"<. c #EBEABF",
"1. c #D4D1BB",
"2. c #D9D5AA",
"3. c #E4DD89",
"4. c #EBE27C",
"5. c #ECE485",
"6. c #E6E096",
"7. c #C9C3BA",
"8. c #F1EFB2",
"9. c #EEE898",
"0. c #ECE58A",
"q. c #F1EFB3",
"w. c #6E619D",
"e. c #7E71A3",
"r. c #F2F1BC",
"t. c #F1EEAE",
/* pixels */
"          . X o o o o X .             . X o o o o X .           ",
"      O + @ # $ $ $ $ # % + O     O + @ # $ $ $ $ # % + O       ",
"      + & # * = = = = * # & +     + - # * = = = = * # & +       ",
"      . X ; : > > , < 1 2 3 4 . . 5 3 $ = < , > > 6 ; X .       ",
"      . X 7 8 9 9 0 , 1 2 q 3 X X 3 q $ = , 0 9 9 8 w X .       ",
"      . X e r t t 9 > y u i i i i i i u p > 9 t t a s X .       ",
"      . X e r t t 9 > d f g g g g g g f d > 9 t t a s X .       ",
"      . X 7 8 9 9 0 , h j k k k k k k l z , 0 9 9 8 w X .       ",
"      . X ; : > > , < h j k k k k k k l z < , > > 6 ; X .       ",
"      . X $ = x x x x h j k k k k k k l z x x x x 1 2 X .       ",
"      . X $ = x x x x h j k k k k k k l z x x x x 1 2 X .       ",
"  O + 5 3 $ = x x x x c v l l l l l l v c x x x x 1 2 3 4 + O   ",
"  + - 3 q $ = x x x x b c z z z z z z c b x x x x 1 2 q 3 & +   ",
"  + & 3 q $ = n m m n x x x x x x x x x x n m m n 1 2 q 3 & +   ",
"  O + 4 3 $ = m M M m x x x x x x x x x x m M M m 1 2 3 4 + O   ",
"  O + 5 3 $ = m M M m x x x x x x x x x x m M M m 1 2 3 4 + O   ",
"  + - 3 q $ = n m m n x x x x x x x x x x n m m n 1 2 q 3 & +   ",
"  + & 3 q N B V V C Z x x x x x x x x x x Z C V V B N q 3 & +   ",
"  O + 4 3 A S D D F C x x x x x x x x x x C F D D S A 3 4 + O   ",
"      + & G H J J K L P P P P P P P P P P L K J J I G & +       ",
"      O + U G Y Y T R E E E E E E E E E E R T Y Y G W + O       ",
"      O + Q ! ~ ^ / ( ) ) _ ` ' ] [ { ) ) ( / ^ ~ ! Q + O       ",
"      + - ! } |  ...X.) ) ` o.O.+.@.[ ) ) X.#. .| } $.& +       ",
"      . X i g l z %.&.*.*.=.-.;.:.>.,.*.*.&.%.h j g i X .       ",
"      . X i g l z <.%.1.1.2.3.4.5.6.>.1.1.%.<.h j g i X .       ",
"      + & ! } | 7.m n x x 8.9.0.0.9.q.x x n m 7.| } $.& +       ",
"      O + w.$.e.^ M m x x r.q.t.t.q.r.x x m M ^ e.$.w.+ O       ",
"          + & 3 q ^  .h h d y 1 1 y d h h 7.^ q 3 & +           ",
"          O + 4 3 ~ | j j f u 2 2 u f j j | e.3 4 + O           ",
"              + & ! } g g } ! X X ! } g g } $.& +               ",
"              O + w.$.i i $.w.. . w.$.i i $.w.+ O               ",
"                  . X o o X .     . X o o X .                   "
};
