/* XPM */
static char *result[] = {
/* columns rows colors chars-per-pixel */
"32 32 76 1 ",
"  c #5C4E92",
". c #645697",
"X c #655895",
"o c #625698",
"O c #635698",
"+ c #675C9C",
"@ c #786D9B",
"# c #7D739F",
"$ c #7F749D",
"% c #6F65A4",
"& c #7467A0",
"* c #7065A4",
"= c #7167A5",
"- c #7167A6",
"; c #746AA2",
": c #7A6DA3",
"> c #7A6DA4",
", c #796FA7",
"< c #746BA8",
"1 c #766DAA",
"2 c #7E71A3",
"3 c #7E72A3",
"4 c #7F74A1",
"5 c #7F75A1",
"6 c #7970A7",
"7 c #7C70A5",
"8 c #82779D",
"9 c #80759F",
"0 c #82779E",
"q c #877DA2",
"w c #8C84AD",
"e c #958BA3",
"r c #958CA3",
"t c #9088AB",
"y c #9089AB",
"u c #958EAF",
"i c #9E96A6",
"p c #9A90AC",
"a c #A49ABD",
"s c #A59ABD",
"d c #B1AAAC",
"f c #B3ACAD",
"g c #B6B0AE",
"h c #B7B0AE",
"j c #BAB4AF",
"k c #BAB5AF",
"l c #ADA7B4",
"z c #B7B2B2",
"x c #B8B2B2",
"c c #CDC9B4",
"v c #CDC9B5",
"b c #CFCBB6",
"n c #C9C3BA",
"m c #C9C4BA",
"M c #D2CFB9",
"N c #D7D3B7",
"B c #D5D1B9",
"V c #D5D2B9",
"C c #D4D1BA",
"Z c #DCD9BC",
"A c #EAE8BD",
"S c #EBEABF",
"D c #A99FC0",
"F c #BDB3CB",
"G c #C1B9C5",
"H c #CAC3C8",
"J c #E3DCD6",
"K c #E2DCD7",
"L c #E5E2C3",
"P c #EEEBC7",
"I c #EFEDC6",
"U c #EDEBC8",
"Y c #F3F2C0",
"T c #F2F0C2",
"R c #E7E2D1",
"E c None",
/* pixels */
"EEEEEE      EEEEEEEE      EEEEEE",
"EEEEEE$0000$EEEEEEEE$0000$EEEEEE",
"EEEE $hvvvvh$ EEEE $hvvvvh$ EEEE",
"EEEE 0vYYYYc8 EEEE 0vYYYYc8 EEEE",
"EEEE 0vYYYYc8      0vYYYYc8 EEEE",
"EEEE 0vYYYYBp777777pVYYYYc8 EEEE",
"EEEE 0vYYYYLHFFFFFFHLYYYYc8 EEEE",
"EEEE 0vYYYYIRJJJJJJRIYYYYc8 EEEE",
"EEEE 0vYYYYTIPPPPPPITYYYYc8 EEEE",
"EEEE 0vYYYYYYYYYYYYYYYYYYc8 EEEE",
"EEEE 0vYYYYYYYYYYYYYYYYYYc8 EEEE",
"EEEE 0vYYYYYYYYYYYYYYYYYYc8 EEEE",
"EE   0vYYYYYYYYYYYYYYYYYYc8   EE",
"EE   0vYYYYYYYYYYYYYYYYYYc8   EE",
"EEEE 0vYYYYYYYYYYYYYYYYYYc8 EEEE",
"EEEE 0vYYYYYYYYYYYYYYYYYYc8 EEEE",
"EE   0vYYYYYYYYYYYYYYYYYYc8   EE",
"EE   0vYYYYYYYYYYYYYYYYYYc8   EE",
"EEEE 0vYYYYYYYYYYYYYYYYYYc8 EEEE",
"EEEE $hccbMCCCCCCCCCCMbccd@ EEEE",
"EEEEEE$88qtuuuuuuuuuutq88@X EEEE",
"EEEEEE   O*11<=%%=<116593&. EEEE",
"EEEEEE   O*11=+oo+-11wxmGs& EEEE",
"EEEEEE>39qyw,;#00#;6wlZLHD: EEEE",
"EEEE >DGmbMz4#fvvf#5xZSBp:EEEEEE",
"EEEE 7FJPANjriNYYNiiNANg$ EEEEEE",
"EEEE 7FJPNiekNAYYANNANi$EEEEEEEE",
"EEEE &aGnd@@dccccBLUUn9 EEEEEEEE",
"EEEE .&29@XX@8888pHKKG2 EEEEEEEE",
"EEEE             >DFFD: EEEEEEEE",
"EEEEEEEEEEEEEEEEEE:77:EEEEEEEEEE",
"EEEEEEEEEEEEEEEEEE    EEEEEEEEEE"
};
