/* XPM */
static char *bd5b9947d90d4e68ae5a774d5901f9e0jeWCW6jFiBXjQCkL[] = {
/* columns rows colors chars-per-pixel */
"32 32 136 2 ",
"   c black",
".  c #5C4E92",
"X  c #5C4E92",
"o  c #5C4E92",
"O  c #5C4E92",
"+  c #5C4E92",
"@  c #726599",
"#  c #7F749D",
"$  c #82779E",
"%  c #786D9B",
"&  c #655895",
"*  c #5C4E92",
"=  c #5C4E92",
"-  c #726599",
";  c #5C4E92",
":  c None",
">  c #CDC9B5",
",  c #B1AAAC",
"<  c #5C4E92",
"1  c #81739C",
"2  c #CBBEB1",
"3  c #F0E3BB",
"4  c #F1E7BC",
"5  c #F2EEBF",
"6  c #D7D3B7",
"7  c #9E96A6",
"8  c #80759F",
"9  c #7E72A3",
"0  c #7C70A5",
"q  c #CBBDB1",
"w  c #806C9A",
"e  c #C7A7A9",
"r  c #EBC4B1",
"t  c #EDD0B5",
"y  c #EAE8BD",
"u  c #C9C4BA",
"i  c #C1B9C5",
"p  c #BDB3CB",
"a  c #806B9A",
"s  c #7F6899",
"d  c #C59BA6",
"f  c #E8B5AC",
"g  c #F3F2C0",
"h  c #EDEBC8",
"j  c #E2DCD7",
"k  c #DDD5DE",
"l  c #E3DCD6",
"z  c #EEEBC7",
"x  c #C59BA5",
"c  c #7F6898",
"v  c #7C6698",
"b  c #B08CA2",
"n  c #CEA5A8",
"m  c #E1BAAE",
"M  c #705D96",
"N  c #9B87A1",
"B  c #D4C4B2",
"V  c #9B86A1",
"C  c #705D96",
"Z  c #5C4E92",
"A  c #EFEDC6",
"S  c #E7E2D1",
"D  c #CDC9B4",
"F  c #82779D",
"G  c #5C4E92",
"H  c #F2F0C2",
"J  c #82759E",
"K  c #CDC4B5",
"L  c #F3EBC1",
"P  c #F3EDC1",
"I  c #F3F0C0",
"U  c #82729E",
"Y  c #CDBAB7",
"T  c #F3DEC4",
"R  c #F3E3C3",
"E  c #7F6E9E",
"W  c #B7A1B1",
"Q  c #CDB5B8",
"!  c #CFBCB9",
"~  c #D2CABA",
"^  c #D4D1BA",
"/  c #B6A1B1",
"(  c #726299",
")  c #82709F",
"_  c #8778A3",
"`  c #9087AB",
"'  c #958EAF",
"]  c #635698",
"[  c #7065A4",
"{  c #766DAA",
"}  c #7D74A7",
"|  c #8C83A1",
" . c #948BA2",
".. c #958DAB",
"X. c #8D86AE",
"o. c #7E75AB",
"O. c #6F65A4",
"+. c #625698",
"@. c #B7AE8E",
"#. c #CFC792",
"$. c #D2CEAD",
"%. c #BCB8B6",
"&. c #6E619D",
"*. c #7A6DA4",
"=. c #8377A8",
"-. c #8F87AD",
";. c #958EB0",
":. c #ABA3A2",
">. c #D5CC86",
",. c #ECE486",
"<. c #EFEBA0",
"1. c #DAD6AE",
"2. c #ACA6AF",
"3. c #A99FC0",
"4. c #C3BBC7",
"5. c #CEC9BF",
"6. c #D4D1BB",
"7. c #D9D5AA",
"8. c #E4DD89",
"9. c #EBE27C",
"0. c #ECE485",
"q. c #E6E096",
"w. c #7A6DA3",
"e. c #F1EFB2",
"r. c #EEE898",
"t. c #ECE58A",
"y. c #F1EFB3",
"u. c #F2F1BC",
"i. c #F1EEAE",
"p. c #CAC3C8",
"a. c #E5E2C3",
"s. c #6E619D",
"d. c #9A90AC",
"f. c #D5D1B9",
"g. c #C9C3BA",
"h. c #7E71A3",
/* pixels */
"      . X o o o o o o X .                 . X o o o o X .       ",
"  O + @ # $ $ $ $ % & * = . . . . . . . . @ # $ $ $ $ # - + O   ",
"  + ; # : > > > > , % < * X X X X X X X X # : > > > > : # ; +   ",
"  . X 1 2 3 3 4 5 6 7 8 9 0 0 0 0 0 0 9 8 7 6 5 4 3 3 q 1 X .   ",
"  . X w e r r t 4 y 6 u i p p p p p p i u 6 y 4 t r r e a X .   ",
"  . X s d f f r 3 g g h j k k k k k k l z g g 3 r f f x c X .   ",
"  . X s d f f r 3 g g h j k k k k k k l z g g 3 r f f x c X .   ",
"  + ; v b n m t 4 g g h j k k k k k k l z g g 4 t m n b v ; +   ",
"  O + M v N B 4 5 g g h j k k k k k k l z g g 5 4 B V v C + O   ",
"  O + Z * $ > g g g g A S l l l l l l S A g g g g D F * = + O   ",
"  + G * < $ > g g g g H A z z z z z z A H g g g g D F < * ; +   ",
"  + ; * < $ > y 6 6 y g g g g g g g g g g y 6 6 y D F < * ; +   ",
"  O + Z * $ > 6 7 7 6 g g g g g g g g g g 6 7 7 6 D F * = + O   ",
"  O + Z * $ > 6 7 7 6 g g g g g g g g g g 6 7 7 6 D F * = + O   ",
"  + G * < $ > y 6 6 y g g g g g g g g g g y 6 6 y D F < * ; +   ",
"  + ; * < J K L L P I g g g g g g g g g g I P L L K J < * ; +   ",
"  O + = * U Y T T R P g g g g g g g g g g P R T T Y U * = + O   ",
"      + ; E W Q Q ! ~ ^ ^ ^ ^ ^ ^ ^ ^ ^ ^ ~ ! Q Q / E ; +       ",
"      O + ( E ) ) _ ` ' ' ' ' ' ' ' ' ' ' ` _ ) ) E ( + O       ",
"          + ; * < ] [ { { } |  ...X.o.{ { O.+.< * ; +           ",
"          O + = * ] [ { { | @.#.$.%.X.{ { O.+.* = + O           ",
"          O + &.*.=.-.;.;.:.>.,.<.1.2.;.;.-.=.*.&.+ O           ",
"          + G *.3.4.5.6.6.7.8.9.0.q.1.6.6.5.4.3.w.; +           ",
"          . X 0 p l z g g e.r.t.t.r.y.g g h j p 0 X .           ",
"          . X 0 p l z g g u.y.i.i.y.u.g g h j p 0 X .           ",
"          + ; *.3.p.a.g g g g g g g g g g a.p.3.w.; +           ",
"          O + s.w.d.f.g g g g g g g g g g f.d.w.s.+ O           ",
"              . X 8 u h h a.f.D D f.a.h h g.8 X .               ",
"              . X 9 i j j p.d.F F d.p.j j i h.X .               ",
"              + ; *.3.p p 3.*.X X *.3.p p 3.w.; +               ",
"              O + s.w.0 0 w.s.. . s.w.0 0 w.s.+ O               ",
"                  . X o o X .     . X o o X .                   "
};
