/* XPM */
static char *result[] = {
/* columns rows colors chars-per-pixel */
"32 32 74 1 ",
"  c #5C4E92",
". c #645697",
"X c #655895",
"o c #625698",
"O c #675C9C",
"+ c #786D9B",
"@ c #7D739F",
"# c #7F749D",
"$ c #6F65A4",
"% c #7467A0",
"& c #7167A5",
"* c #7167A6",
"= c #746AA2",
"- c #7A6DA3",
"; c #7A6DA4",
": c #796FA7",
"> c #746BA8",
", c #766DAA",
"< c #7E71A3",
"1 c #7E72A3",
"2 c #7F74A1",
"3 c #7F75A1",
"4 c #7970A7",
"5 c #7C70A5",
"6 c #82779D",
"7 c #80759F",
"8 c #82779E",
"9 c #877DA2",
"0 c #8C84AD",
"q c #958BA3",
"w c #958CA3",
"e c #9088AB",
"r c #9089AB",
"t c #958EAF",
"y c #9E96A6",
"u c #9A90AC",
"i c #A49ABD",
"p c #A59ABD",
"a c #B1AAAC",
"s c #B3ACAD",
"d c #B6B0AE",
"f c #B7B0AE",
"g c #BAB4AF",
"h c #BAB5AF",
"j c #ADA7B4",
"k c #B7B2B2",
"l c #B8B2B2",
"z c #CDC9B4",
"x c #CDC9B5",
"c c #CFCBB6",
"v c #C9C3BA",
"b c #C9C4BA",
"n c #D2CFB9",
"m c #D7D3B7",
"M c #D5D1B9",
"N c #D5D2B9",
"B c #D4D1BA",
"V c #DCD9BC",
"C c #EAE8BD",
"Z c #EBEABF",
"A c #A99FC0",
"S c #BDB3CB",
"D c #C1B9C5",
"F c #CAC3C8",
"G c #E3DCD6",
"H c #E2DCD7",
"J c #E5E2C3",
"K c #EEEBC7",
"L c #EFEDC6",
"P c #EDEBC8",
"I c #F3F2C0",
"U c #F2F0C2",
"Y c #E7E2D1",
"T c None",
/* pixels */
"TTTTTT      TTTTTTTT      TTTTTT",
"TTTTTT#8888#TTTTTTTT#8888#TTTTTT",
"TTTT #fxxxxf# TTTT #fxxxxf# TTTT",
"TTTT 8xIIIIz6 TTTT 8xIIIIz6 TTTT",
"TTTT 8xIIIIz6      8xIIIIz6 TTTT",
"TTTT 8xIIIIMu555555uNIIIIz6 TTTT",
"TTTT 8xIIIIJFSSSSSSFJIIIIz6 TTTT",
"TTTT 8xIIIILYGGGGGGYLIIIIz6 TTTT",
"TTTT 8xIIIIULKKKKKKLUIIIIz6 TTTT",
"TTTT 8xIIIIIIIIIIIIIIIIIIz6 TTTT",
"TTTT 8xIIIIIIIIIIIIIIIIIIz6 TTTT",
"TTTT 8xIIIIIIIIIIIIIIIIIIz6 TTTT",
"TT   8xIIIIIIIIIIIIIIIIIIz6   TT",
"TT   8xIIIIIIIIIIIIIIIIIIz6   TT",
"TTTT 8xIIIIIIIIIIIIIIIIIIz6 TTTT",
"TTTT 8xIIIIIIIIIIIIIIIIIIz6 TTTT",
"TT   8xIIIIIIIIIIIIIIIIIIz6   TT",
"TT   8xIIIIIIIIIIIIIIIIIIz6   TT",
"TTTT 8xIIIIIIIIIIIIIIIIIIz6 TTTT",
"TTTT +azzcnBBBBBBBBBBnczzd# TTTT",
"TTTT X+669etttttttttte966#TTTTTT",
"TTTT .%1734,,>&$$&>,,$o   TTTTTT",
"TTTT %pDbk0,,&OooO*,,$o   TTTTTT",
"TTTT ;AFJVj0:=@88@=40r971;TTTTTT",
"TTTTTT-uMZVk2@sxxs@3lncbDA- TTTT",
"TTTTTT #fmCmyymIImywgmCPHS5 TTTT",
"TTTTTTTT#ymCmmCIICmhqymPHS5 TTTT",
"TTTTTTTT 7bPPJMzzzza++avDi% TTTT",
"TTTTTTTT 1DHHFu6666+XX+7<%. TTTT",
"TTTTTTTT ;ASSA;             TTTT",
"TTTTTTTTTT-55-TTTTTTTTTTTTTTTTTT",
"TTTTTTTTTT    TTTTTTTTTTTTTTTTTT"
};
