/* XPM */
static char *_9d891e839ad44c3f254cc1f9d16d50by94pYYombidB4lXI[] = {
/* columns rows colors chars-per-pixel */
"32 32 117 2 ",
"   c black",
".  c #5C4E92",
"X  c #5C4E92",
"o  c #5C4E92",
"O  c #5C4E92",
"+  c #5C4E92",
"@  c #726599",
"#  c #7F749D",
"$  c #82779E",
"%  c #726599",
"&  c #5C4E92",
"*  c None",
"=  c #CDC9B5",
"-  c #5C4E92",
";  c #5C4E92",
":  c #5C4E92",
">  c #F2EEBF",
",  c #F1E7BC",
"<  c #F0E3BB",
"1  c #D5C8B4",
"2  c #9D92A5",
"3  c #5C4E92",
"4  c #EDD0B5",
"5  c #EBC4B1",
"6  c #E3C5B2",
"7  c #9E96A6",
"8  c #D7D3B7",
"9  c #E8B5AC",
"0  c #CDC9B4",
"q  c #82779D",
"w  c #EAE8BD",
"e  c #F3F2C0",
"r  c #5C4E92",
"t  c #655895",
"y  c #786D9B",
"u  c #B1AAAC",
"i  c #F3F0C0",
"p  c #F3EDC1",
"a  c #F3EBC1",
"s  c #F3E3C3",
"d  c #F3DEC4",
"f  c #CFCBB6",
"g  c #D2CFB9",
"h  c #D4D1BA",
"j  c #D4CCBB",
"k  c #D4C2BD",
"l  c #D4BDBE",
"z  c #B6B0AE",
"x  c #877DA2",
"c  c #9088AB",
"v  c #958EAF",
"b  c #958DB0",
"n  c #9589B0",
"m  c #9588B1",
"M  c #80738B",
"N  c #80738B",
"B  c #7D7193",
"V  c #786EA2",
"C  c #746BA8",
"Z  c #7167A5",
"A  c #786EA9",
"S  c #887FB2",
"D  c #9189B5",
"F  c #948DB1",
"G  c #958EB0",
"H  c #877EA8",
"J  c #6A5E99",
"K  c #C7BC7E",
"L  c #C7BC7E",
"P  c #B2A889",
"I  c #8A819F",
"U  c #675C9C",
"Y  c #7B6FA6",
"T  c #ABA2C3",
"R  c #C7C1CB",
"E  c #D0CBC0",
"W  c #D4D1BB",
"Q  c #B6B0B0",
"!  c #7A6F9C",
"~  c #EAE178",
"^  c #EAE178",
"/  c #CBC283",
"(  c #8E8499",
")  c #6B5F9F",
"_  c #615496",
"`  c #7C70A5",
"'  c #BDB3CB",
"]  c #E3DCD6",
"[  c #EEEBC7",
"{  c #C8BE80",
"}  c #847890",
"|  c #5E5093",
" . c #C6BC7F",
".. c #C6BC7F",
"X. c #ACA183",
"o. c #77698D",
"O. c #9186A9",
"+. c #AEA4C0",
"@. c #CAC3C8",
"#. c #E5E2C3",
"$. c #7F738C",
"%. c #7F738C",
"&. c #655790",
"*. c #B9B3B1",
"=. c #9086A9",
"-. c #9A90AC",
";. c #D5D1B9",
":. c #EDEBC8",
">. c #C9C3BA",
",. c #80759F",
"<. c #E2DCD7",
"1. c #C1B9C5",
"2. c #7E71A3",
"3. c #7A6DA4",
"4. c #A99FC0",
"5. c #7A6DA3",
"6. c #6E619D",
/* pixels */
"                          . X o o o o X .                       ",
"                      O + @ # $ $ $ $ # % + O                   ",
"                      + & # * = = = = * # - +                   ",
"                  O + ; : $ = > , < < 1 2 # % + O               ",
"                  + & : 3 $ = , 4 5 5 6 1 * # - +               ",
"              O + @ # $ $ 7 8 < 5 9 9 5 < 0 q X .               ",
"              + & # * = = 8 w < 5 9 9 5 < 0 q X .               ",
"              . X $ = e e e e , 4 5 5 4 , 0 q X .               ",
"              . X $ = e e e e > , < < , > 0 q X .               ",
"              . X $ = e e e e e e e e e e 0 q X .               ",
"              . X $ = e e e e e e e e e e 0 q X .               ",
"          O + ; : $ = e e e e e e e e e e 0 q : r + O           ",
"          + & : 3 $ = e e e e e e e e e e 0 q 3 : - +           ",
"          . X t y 7 8 w 8 8 w e e e e e e 0 q 3 : - +           ",
"          . X y u 8 w 8 7 7 8 e e e e e e 0 q : r + O           ",
"          . X $ = e e 8 7 7 8 e e e e e e 0 q : ; + O           ",
"          . X $ = e e w 8 8 w e e e e e e 0 q 3 : - +           ",
"          . X $ = e e e e i p a a p i e e 0 q 3 : - +           ",
"          . X $ = e e e e p s d d s p e e 0 q : r + O           ",
"          + - # * f g h h j k l l k j g f z # - +               ",
"          O + % # x c v v b n m m n b c x # % + O               ",
"              M N B V C Z A S D F G G H J X .                   ",
"              K L P I Z U Y T R E W W Q ! X .                   ",
"              ~ ^ / ( ) _ ` ' ] [ e e 0 q X .                   ",
"              ~ ^ { } _ | ` ' ] [ e e 0 q X .                   ",
"               ...X.o.t y O.+.@.#.e e 8 7 # @ + O               ",
"              $.%.o.&.y u *.=.-.;.e e w 8 * # - +               ",
"              . X o o y u u y y u ;.#.:.:.>.,.X .               ",
"              . X o o t y y t t y -.@.<.<.1.2.X .               ",
"              + - : 3 o o 3 : X X 3.4.' ' 4.5.- +               ",
"              O + r : o o : r . . 6.5.` ` 5.6.+ O               ",
"                  . X o o X .     . X o o X .                   "
};
