/* XPM */
static char *_f6c3f1263e2407ea4afe81f317923ebHuPxp3TmbM0UDQ7b[] = {
/* columns rows colors chars-per-pixel */
"32 32 119 2 ",
"   c black",
".  c #5C4E92",
"X  c #5C4E92",
"o  c #5C4E92",
"O  c #5C4E92",
"+  c #5C4E92",
"@  c #726599",
"#  c #7F749D",
"$  c #82779E",
"%  c #726599",
"&  c #5C4E92",
"*  c None",
"=  c #CDC9B5",
"-  c #5C4E92",
";  c #9D92A5",
":  c #D5C8B4",
">  c #F0E3BB",
",  c #F1E7BC",
"<  c #F2EEBF",
"1  c #CDC9B4",
"2  c #82779D",
"3  c #5C4E92",
"4  c #5C4E92",
"5  c #E3C5B2",
"6  c #EBC4B1",
"7  c #EDD0B5",
"8  c #5C4E92",
"9  c #E8B5AC",
"0  c #D7D3B7",
"q  c #9E96A6",
"w  c #EAE8BD",
"e  c #F3F2C0",
"r  c #5C4E92",
"t  c #786D9B",
"y  c #655895",
"u  c #B1AAAC",
"i  c #F3F0C0",
"p  c #F3EDC1",
"a  c #F3EBC1",
"s  c #F3E3C3",
"d  c #F3DEC4",
"f  c #CFCBB6",
"g  c #D2CFB9",
"h  c #D4CCBB",
"j  c #D4C2BD",
"k  c #D4BDBE",
"l  c #D4D1BA",
"z  c #B6B0AE",
"x  c #877DA2",
"c  c #9088AB",
"v  c #958DB0",
"b  c #9589B0",
"n  c #9588B1",
"m  c #958EAF",
"M  c #6A5E99",
"N  c #877EA8",
"B  c #958EB0",
"V  c #948DB1",
"C  c #9189B5",
"Z  c #887FB2",
"A  c #786EA9",
"S  c #7167A5",
"D  c #746BA8",
"F  c #786EA2",
"G  c #7D7193",
"H  c #80738B",
"J  c #80738B",
"K  c #7A6F9C",
"L  c #B6B0B0",
"P  c #D4D1BB",
"I  c #D0CBC0",
"U  c #C7C1CB",
"Y  c #ABA2C3",
"T  c #7B6FA6",
"R  c #675C9C",
"E  c #7167A6",
"W  c #8A819F",
"Q  c #B3A989",
"!  c #C7BC7E",
"~  c #C7BC7E",
"^  c #EDEBC8",
"/  c #E2DCD7",
"(  c #BDB3CB",
")  c #7C70A5",
"_  c #615497",
"`  c #6B5F9F",
"'  c #8E8499",
"]  c #CBC283",
"[  c #EAE178",
"{  c #EAE178",
"}  c #5E5093",
"|  c #615496",
" . c #847990",
".. c #C8BE80",
"X. c #E5E2C3",
"o. c #CAC3C8",
"O. c #AEA4C0",
"+. c #9186A9",
"@. c #776A8D",
"#. c #ACA183",
"$. c #C6BC7F",
"%. c #C6BC7F",
"&. c #B7B1AE",
"*. c #D5D1B9",
"=. c #9A90AC",
"-. c #9086A9",
";. c #B9B3B1",
":. c #655790",
">. c #77698D",
",. c #7F738C",
"<. c #7F738C",
"1. c #80759F",
"2. c #C9C4BA",
"3. c #7E72A3",
"4. c #C1B9C5",
"5. c #7A6DA4",
"6. c #A99FC0",
"7. c #6E619D",
"8. c #7A6DA3",
/* pixels */
"                      . X o o o o X .                           ",
"                  O + @ # $ $ $ $ # % + O                       ",
"                  + & # * = = = = * # - +                       ",
"              O + @ # ; : > > , < 1 2 3 4 + O                   ",
"              + & # * : 5 6 6 7 , 1 2 8 3 - +                   ",
"              . X $ = > 6 9 9 6 > 0 q $ $ # % + O               ",
"              . X $ = > 6 9 9 6 > w 0 = = * # - +               ",
"              . X $ = , 7 6 6 7 , e e e e 1 2 X .               ",
"              . X $ = < , > > , < e e e e 1 2 X .               ",
"              . X $ = e e e e e e e e e e 1 2 X .               ",
"              . X $ = e e e e e e e e e e 1 2 X .               ",
"          O + r 3 $ = e e e e e e e e e e 1 2 3 4 + O           ",
"          + & 3 8 $ = e e e e e e e e e e 1 2 8 3 - +           ",
"          + - 3 8 $ = e e e e e e w 0 0 w 0 q t y X .           ",
"          O + r 3 $ = e e e e e e 0 q q 0 w 0 u t X .           ",
"          O + r 3 $ = e e e e e e 0 q q 0 e e 1 2 X .           ",
"          + & 3 8 $ = e e e e e e w 0 0 w e e 1 2 X .           ",
"          + - 3 8 $ = e e i p a a p i e e e e 1 2 X .           ",
"          O + 4 3 $ = e e p s d d s p e e e e 1 2 X .           ",
"              + - # * f g h j k k j h l l g f z # - +           ",
"              O + % # x c v b n n b v m m c x # % + O           ",
"                  . X M N B B V C Z A S D F G H J               ",
"                  . X K L P P I U Y T R E W Q ! ~               ",
"                  . X $ = e e ^ / ( ) _ ` ' ] [ {               ",
"                  . X $ = e e ^ / ( ) } |  ...[ {               ",
"              O + @ # q 0 e e X.o.O.+.t y @.#.$.%.              ",
"              + & # &.0 w e e *.=.-.;.u t :.>.,.<.              ",
"              . X 1.2.^ ^ X.*.u t t u u t o o X .               ",
"              . X 3.4./ / o.=.t y y t t y o o X .               ",
"              + - 5.6.( ( 6.5.X X 3 8 o o 8 3 - +               ",
"              O + 7.8.) ) 8.7.. . 4 3 o o 3 4 + O               ",
"                  . X o o X .     . X o o X .                   "
};
