/* XPM */
static char *result[] = {
/* columns rows colors chars-per-pixel */
"32 32 124 2 ",
"   c #EBE27C",
".  c #5C4E92",
"X  c #655795",
"o  c #645697",
"O  c #655895",
"+  c #625698",
"@  c #7F6898",
"#  c #7F6899",
"$  c #786D9B",
"%  c #78689C",
"&  c #7F6E9E",
"*  c #7F749D",
"=  c #6F65A4",
"-  c #7467A0",
";  c #7A6DA3",
":  c #7A6DA4",
">  c #766DAA",
",  c #7E71A3",
"<  c #7E72A3",
"1  c #7F75A1",
"2  c #7970A7",
"3  c #7C70A5",
"4  c #7D74A7",
"5  c #7E75AB",
"6  c #806B9A",
"7  c #806C9A",
"8  c #81739C",
"9  c #82709F",
"0  c #82729E",
"q  c #82779D",
"w  c #80759F",
"e  c #82759E",
"r  c #82779E",
"t  c #8778A3",
"y  c #877DA2",
"u  c #B7AE8E",
"i  c #8C83A1",
"p  c #8C84AD",
"a  c #8D86AE",
"s  c #948BA2",
"d  c #9087AB",
"f  c #9089AB",
"g  c #958DAB",
"h  c #958EAF",
"j  c #9E96A6",
"k  c #9A90AC",
"l  c #958EB0",
"z  c #B19CAF",
"x  c #A49ABD",
"c  c #A59ABD",
"v  c #ABA3A2",
"b  c #ACA6AF",
"n  c #B1AAAC",
"m  c #B7B0AE",
"M  c #ADA7B4",
"N  c #B6A1B1",
"B  c #B7B2B2",
"V  c #BCB8B6",
"C  c #C59BA5",
"Z  c #C59BA6",
"A  c #C7A7A9",
"S  c #CBBDB1",
"D  c #CBBEB1",
"F  c #CDBAB7",
"G  c #CDB5B8",
"H  c #CFBCB9",
"J  c #E8B5AC",
"K  c #D5CC86",
"L  c #CFC792",
"P  c #E4DD89",
"I  c #ECE485",
"U  c #ECE486",
"Y  c #ECE58A",
"T  c #E6E096",
"R  c #EEE898",
"E  c #D2CEAD",
"W  c #D9D5AA",
"Q  c #DAD6AE",
"!  c #CDC4B5",
"~  c #CDC9B4",
"^  c #CDC9B5",
"/  c #CFCBB6",
"(  c #C9C3BA",
")  c #C9C4BA",
"_  c #D2CABA",
"`  c #D2CFB9",
"'  c #D7D3B7",
"]  c #D5D1B9",
"[  c #D5D2B9",
"{  c #D4D1BA",
"}  c #D4D1BB",
"|  c #DCD9BC",
" . c #EBC4B1",
".. c #EDD0B5",
"X. c #EFEBA0",
"o. c #F1EEAE",
"O. c #EAE8BD",
"+. c #EBEABF",
"@. c #F1EFB2",
"#. c #F1EFB3",
"$. c #F0E3BB",
"%. c #F1E7BC",
"&. c #F2EEBF",
"*. c #F2F1BC",
"=. c #A99FC0",
"-. c #BDB3CB",
";. c #C1B9C5",
":. c #CAC3C8",
">. c #DDD5DE",
",. c #F3DEC4",
"<. c #E3DCD6",
"1. c #E2DCD7",
"2. c #E5E2C3",
"3. c #EEEBC7",
"4. c #EFEDC6",
"5. c #EDEBC8",
"6. c #F3E3C3",
"7. c #F3EBC1",
"8. c #F3EDC1",
"9. c #F3F0C0",
"0. c #F3F2C0",
"q. c #F2F0C2",
"w. c #E7E2D1",
"e. c None",
/* pixels */
"e.e.e.e.e.e.. . . . . . e.e.e.e.e.e.e.e.. . . . . . e.e.e.e.e.e.",
"e.e.e.e.e.e.* r r r r * e.e.e.e.e.e.e.e.* r r r r * e.e.e.e.e.e.",
"e.e.e.e.. * m ^ ^ ^ ^ m * . e.e.e.e.. * m ^ ^ ^ ^ m * . e.e.e.e.",
"e.e.e.e.. 8 D $.$.%.&.~ q . e.e.e.e.. r ^ &.%.$.$.S 8 . e.e.e.e.",
"e.e.e.e.. 7 A  . ...%.~ q . . . . . . r ^ %... . .A 6 . e.e.e.e.",
"e.e.e.e.. # Z J J  .$.] k 3 3 3 3 3 3 k [ $. .J J C @ . e.e.e.e.",
"e.e.e.e.. # Z J J  .$.2.:.-.-.-.-.-.-.:.2.$. .J J C @ . e.e.e.e.",
"e.e.e.e.. 7 A  . ...%.5.1.>.>.>.>.>.>.<.3.%... . .A 6 . e.e.e.e.",
"e.e.e.e.. 8 D $.$.%.&.5.1.>.>.>.>.>.>.<.3.&.%.$.$.S 8 . e.e.e.e.",
"e.e.e.e.. r ^ 0.0.0.0.5.1.>.>.>.>.>.>.<.3.0.0.0.0.~ q . e.e.e.e.",
"e.e.e.e.. r ^ 0.0.0.0.5.1.>.>.>.>.>.>.<.3.0.0.0.0.~ q . e.e.e.e.",
"e.e.e.e.. r ^ 0.0.0.0.4.w.<.<.<.<.<.<.w.4.0.0.0.0.~ q . e.e.e.e.",
"e.e.. . . r ^ 0.0.0.0.q.4.3.3.3.3.3.3.4.q.0.0.0.0.~ q . . . e.e.",
"e.e.. . . r ^ O.' ' O.0.0.0.0.0.0.0.0.0.0.O.' ' O.~ q . . . e.e.",
"e.e.e.e.. r ^ ' j j ' 0.0.0.0.0.0.0.0.0.0.' j j ' ~ q . e.e.e.e.",
"e.e.e.e.. r ^ ' j j ' 0.0.0.0.0.0.0.0.0.0.' j j ' ~ q . e.e.e.e.",
"e.e.. . . r ^ O.' ' O.0.0.0.0.0.0.0.0.0.0.O.' ' O.~ q . . . e.e.",
"e.e.. . . e ! 7.7.8.9.0.0.0.0.0.0.0.0.0.0.9.8.7.7.! e . . . e.e.",
"e.e.e.e.. 0 F ,.,.6.8.0.0.0.0.0.0.0.0.0.0.8.6.,.,.F 0 . e.e.e.e.",
"e.e.e.e.. % z G G H _ { { { { { { { { { { _ H G G N & . e.e.e.e.",
"e.e.e.e.. X % 9 9 t d h h h h h h h h h h d t 9 9 & e.e.e.e.e.e.",
"e.e.e.e.. o - < w 1 2 > > 4 i s g a 5 > > = + . . . e.e.e.e.e.e.",
"e.e.e.e.. - c ;.) B p > > i u L E V a > > = + . . . e.e.e.e.e.e.",
"e.e.e.e.. : =.:.2.| M l l v K U X.Q b l l f y w < : e.e.e.e.e.e.",
"e.e.e.e.e.e.; k ] +.| } } W P   I T Q } } ` / ) ;.=.; . e.e.e.e.",
"e.e.e.e.e.e.. * m ' O.0.0.@.R Y Y R #.O.' ' O.5.1.-.3 . e.e.e.e.",
"e.e.e.e.e.e.e.e.* j ' 0.0.*.#.o.o.#.*.' j j ' 5.1.-.3 . e.e.e.e.",
"e.e.e.e.e.e.e.e.. w ) 5.5.2.] ~ ~ ~ ~ n $ $ n ( ;.x - . e.e.e.e.",
"e.e.e.e.e.e.e.e.. < ;.1.1.:.k q q q q $ O O $ w , - o . e.e.e.e.",
"e.e.e.e.e.e.e.e.. : =.-.-.=.: . . . . . . . . . . . . . e.e.e.e.",
"e.e.e.e.e.e.e.e.e.e.; 3 3 ; e.e.e.e.e.e.e.e.e.e.e.e.e.e.e.e.e.e.",
"e.e.e.e.e.e.e.e.e.e.. . . . e.e.e.e.e.e.e.e.e.e.e.e.e.e.e.e.e.e."
};
