/* XPM */
static char *result[] = {
/* columns rows colors chars-per-pixel */
"32 32 47 1 ",
"  c #C0D470",
". c #A8C368",
"X c #88AC5D",
"o c #78A158",
"O c #87AC5C",
"+ c #7DA559",
"@ c #82A85A",
"# c #A0BD65",
"$ c #8CB05D",
"% c #95B75F",
"& c #A4C263",
"* c #9ABB61",
"= c #9FBE62",
"- c #90B35E",
"; c #ADC867",
": c #B4CC6A",
"> c #BAD06D",
", c #A7C464",
"< c #B0CA69",
"1 c #B7CE6C",
"2 c #AAC666",
"3 c #BDD26F",
"4 c #8E735B",
"5 c #7E9D58",
"6 c #9B6D5E",
"7 c #A2855B",
"8 c #8E8F58",
"9 c #998659",
"0 c #839858",
"q c #8D9F5B",
"w c #9D6F5F",
"e c #B98D64",
"r c #B68962",
"t c #AE7E5C",
"y c #BB8F65",
"u c #B88B63",
"i c #B1825E",
"p c #B2845F",
"a c #B38560",
"s c #BF9469",
"d c #C1966A",
"f c #C49A6C",
"g c #BE9268",
"h c #BDBB6B",
"j c #BC9166",
"k c #BFCC6E",
"l c #B89A65",
/* pixels */
"  .XoO+ooOOOOOoo+Ooo@@o+OO+oX.  ",
" #o$%&*%%&&&&&%%*&%%==%*&&*%$o# ",
".o-&&;;:  :;;>   :;;;;;  ;,&&-o.",
"X$&&<                     >&&&$X",
"o%&&1:  :     : :          1<&%o",
"O&&1                   :   > ;*+",
"+*&1                       > ;&O",
"o%&1      >        :>   >    ;&O",
"@=23      >             >    ;*+",
"O&; :                        ;%o",
"O&,>                         >%o",
"o%&1                          %o",
"o%&1                         >%o",
"o%&1   :                  :  ;=@",
"O&;                          ;&O",
"O&;                          >&O",
"O&:>3                         =@",
"+* >3    :        >>          %o",
"o%>         33             :  %o",
"o%;         33               :=@",
"@=;             :            ;&O",
"+*;  :                   :   ;&O",
"O&>                          ;*+",
"@=&<33113    >1113        >1<&%o",
"o@&&22&&2;;;;,&&&2;;;;>;;;,&&&@o",
"45@%==%%%*&%%%%%&&%%=&&=%%%%%@54",
"678o@@899+Oo0999OO99qOOq990oo876",
"wertttryutttieerttuypttpyeittaew",
"wsdyyesfgyyyesdyyyyfgyyyfdyeuysw",
"wsfffssfffffssffffyffffyfffsyfsw",
"hjfffssfffffssffffyffffyfffsyfjh",
"klgffeeffydfssfgyyyffffuyydsyglk"
};
