/* XPM */
static char *_7107e38f6cf4a12d9c07b8e615b1b89v5rweFSyqEzAsuzh[] = {
/* columns rows colors chars-per-pixel */
"32 32 76 1 ",
"  c #C0D470",
". c #A97F6C",
"X c #90625D",
"o c #C39C7B",
"O c #DCB98A",
"+ c #A4C263",
"@ c #BBB179",
"# c #8DB05F",
"$ c #87AC5C",
"% c #99A969",
"& c #90B35E",
"* c #7DA559",
"= c #B7CE6C",
"- c #82A85A",
"; c #90B260",
": c #9CBC61",
"> c #7FA65A",
", c #A5C265",
"< c #95B75F",
"1 c #BBA672",
"2 c #81A85A",
"3 c #98B863",
"4 c #B0CA69",
"5 c #8AAE5D",
"6 c #ADC867",
"7 c #7E705D",
"8 c #90AD61",
"9 c #86AC5B",
"0 c #A2BF65",
"q c #A1A65E",
"w c #8D9759",
"e c #BF9673",
"r c #A18C5B",
"t c #B19761",
"y c #D3B28C",
"u c #EFDEB9",
"i c #929B5B",
"p c #A9AA63",
"a c #ECD6AF",
"s c #EBD6AF",
"d c #A07A59",
"f c #A18A5C",
"g c #E4C89D",
"h c #AA7959",
"j c #996A5C",
"k c #9E7160",
"l c #A17562",
"z c #B3845F",
"x c #81555F",
"c c #C1966A",
"v c #C49A6C",
"b c #7B555C",
"n c #754C60",
"m c #BB8F66",
"M c #B08567",
"N c #7E535F",
"B c #AA8068",
"V c #8C6262",
"C c #986C60",
"Z c #875B5E",
"A c #8F6664",
"S c #A1735D",
"D c #D4AF80",
"F c #A1715A",
"G c #734B62",
"H c #744C61",
"J c #8B6061",
"K c #7C5360",
"L c #95675C",
"P c #C2986B",
"I c #BF9469",
"U c #D2E077",
"Y c #8E6463",
"T c #8C605F",
"R c #BB8F65",
"E c #8A6165",
/* pixels */
"              ....              ",
"          XXooOOOOooXX          ",
"   + +  ..OO@@#$$#@@OO..        ",
"    XXooOO%%&*=++=*&%%OOooXX    ",
"   XOO@@$-; :>,<<,>: ;-$@@OOX   ",
"   X1%234<56:>=++=>:65<432%1X   ",
"    78904<; :>,<<,>: ;<40987    ",
"     8904<56:>=++=>:65<4098     ",
"     8904<; qweeeewq ;<4098     ",
"     8904<rtyyuuuuyytr<4098     ",
"     8ipeeaassOOOOssaaeepi8+++  ",
"    dfyyuuggOO....OOgguuyyfd+++ ",
"   haassOOooXXXXXXXXooOOssaah++ ",
"   jggOO..XXXXXXXXXXXX..OOggj+  ",
"    ooklzzzzzzzzzzzzzzzzlkoo    ",
"     xcvvvvvvvvvvvvvvvvvvcb     ",
"     nzzzzzzzzzzzzzzzzzzzzn     ",
"     nvvvvvvvvvvvvvvvvvvvvn     ",
"     nmMNNMmmmBBBBmmmMNNMmn     ",
"     nmVXXVmmCZZZZCmmVXXVmn     ",
"     nvAllAvBZXXXXZBvAllAvn     ",
"     nzSDDSzkZXXXXZkzSDDSzn     ",
"     nvvvvvvBZXXXXZBvvvvvvn     ",
"     nvvvvvvBZFFFFZBvvvvvvn     ",
"      GHJKGGGLPIIPLGGGKJHGUUUU  ",
"       GIY   TPIIPT   YIGUUUUUU ",
"       GvA   TcRRcT   AvGUUUUUU ",
"       GvA   TcRRcTUUUAvGUUUUU  ",
"        BE   TPIIPTUUUEB        ",
"             TPIIPTUUUU         ",
"             TcRRcTUUU          ",
"              llll              "
};
