/* XPM */
static char *result[] = {
/* columns rows colors chars-per-pixel */
"32 32 4 1 ",
"  c #C0D470",
". c #A4C263",
"X c #D2E077",
"o c #E8EEAA",
/* pixels */
"                                ",
"                                ",
"   . .                          ",
"    .               ....        ",
"                   .......      ",
"                   ........     ",
"                   ........     ",
"                   ........     ",
"                    ......      ",
"           . .                  ",
"            .             ....  ",
"                         ...... ",
"                         ...... ",
"     . .                  ....  ",
"      .                         ",
"                                ",
"                                ",
"                                ",
"                                ",
"                    XXXXX       ",
"                   XXXXXXX      ",
"       o o         XXXXXXX      ",
"        o           XXXXX       ",
"                                ",
"                          XXXX  ",
"                        XXXXXXX ",
"                        XXXXXXX ",
"                   XXX   XXXXX  ",
"                  XXXXX         ",
"                  XXXXX         ",
"                   XXX          ",
"                                "
};
