/* XPM */
static char *_3b0f4ab71cb4b6afe0bb30cae3889124UgjjYHQMrTznRhi[] = {
/* columns rows colors chars-per-pixel */
"32 32 94 2 ",
"   c #C0D470",
".  c #A4C263",
"X  c #F3F4E7",
"o  c #E2D8C6",
"O  c #E1D5C3",
"+  c #C7AA92",
"@  c #BC987C",
"#  c #D8C6AF",
"$  c #C5A787",
"%  c #BC9773",
"&  c #D8C59C",
"*  c #E1D4A6",
"=  c #CAAE86",
"-  c #E5DBAD",
";  c #F3F1C0",
":  c #F3F0C0",
">  c #F3F0C3",
",  c #F3F2C7",
"<  c #F3F2C2",
"1  c #C4A587",
"2  c #D3C1B0",
"3  c #DCD2C7",
"4  c #EEEABA",
"5  c #F3EBC1",
"6  c #F3EBC8",
"7  c #F3F1D6",
"8  c #F3F3D6",
"9  c #D3C09D",
"0  c #B79A89",
"q  c #B89C94",
"w  c #F3EFC8",
"e  c #F3E8C4",
"r  c #F3E8C9",
"t  c #F3EDD7",
"y  c #F3F2C0",
"u  c #E0D5AC",
"i  c #B99A83",
"p  c #B39285",
"a  c #CDBBAF",
"s  c #F3F0D6",
"d  c #F3E9C9",
"f  c #F3E6C4",
"g  c #EBE2B5",
"h  c #DAC39F",
"j  c #C8A88F",
"k  c #F3F3D1",
"l  c #F3F4E0",
"z  c #F3F1E0",
"x  c #F3ECD2",
"c  c #F0E9B9",
"v  c #EBD8AC",
"b  c #D2B494",
"n  c #A67D6F",
"m  c #A98780",
"M  c #DAD0C5",
"N  c #F3F4E5",
"B  c #F3F3E5",
"V  c #D7BB98",
"C  c #B6927D",
"Z  c #E2C8A1",
"A  c #D8BB98",
"S  c #DFD4C4",
"D  c #B7937D",
"F  c #B79374",
"G  c #DFD2A7",
"H  c #F2F0BE",
"J  c #F1EBBB",
"K  c #EEE3B5",
"L  c #EAD6AB",
"P  c #E8CFA6",
"I  c #DCD1C4",
"U  c #AE8B7F",
"Y  c #AE8A75",
"T  c #DCCFA7",
"R  c #EDDEB1",
"E  c #E9D1A8",
"W  c #DACFC4",
"Q  c #A9867F",
"!  c #A98676",
"~  c #DACEA7",
"^  c #B5988A",
"/  c #CEBC9D",
"(  c #E0D7AD",
")  c #EDE9BA",
"_  c #D7BA98",
"`  c #B89D94",
"'  c #CEBDB1",
"]  c #B59889",
"[  c #BBA188",
"{  c #D2E077",
"}  c #D8C7A2",
"|  c #D4BA99",
" . c #A88474",
".. c #A77F71",
/* pixels */
"                                                                ",
"                                                                ",
"      .   .             X X X X X X X X                         ",
"        .               o O O O O O O o . . . .                 ",
"                    X o + @ @ @ @ @ @ + o X . . . .             ",
"                    o # $ % % % % % % $ # o . . . . .           ",
"                X o + $ & * * * * * * & $ + o X . . .           ",
"                o # $ = - ; : > , , < - = 1 2 3 . . .           ",
"            X o + $ & - 4 : 5 6 7 8 , 4 - 9 0 q 3 X             ",
"            o # $ = - < , w e r t 7 , y y u i p a 3             ",
"        X o + $ & - 4 , 8 s d f r 6 > y y g h j p q 3 X . .     ",
"        X O @ % * < , k l z x d e 5 : y y c v b n m M X . . .   ",
"        X O @ % * , 8 l N B z s w : ; y y c v b n m M X . . .   ",
"        o # $ = - , 7 z B N l 8 , y y y y c v V C p a 3 . .     ",
"    X o + $ & - 4 > 6 x z l k , < y y y y c v Z A j p q 3 X     ",
"    X S D F G y y : 5 6 7 8 , y y y y H J K L P P b n m M X     ",
"    X I U Y T y y ; : > , , < y y y y J R L E P P b n m M X     ",
"    X W Q ! ~ y y y y y y y y y y y y c v P P P P b n m M X     ",
"    X W Q ! ~ y y y y y y y y y y y y c v P P P P b n m M X     ",
"    X W Q ! ~ y y y y y y y y y y H J K L P P P P b n m M X     ",
"    X W Q ! ~ y y y y y y y y y y J R L E P P P P b n m M X     ",
"    X W Q ! ~ y y y y y y y y H J K L P P P P P P b n m M X     ",
"    X W Q ! ~ y y y y y y y y J R L E P P P P P P b n m M X     ",
"    X 3 q ^ / ( ) y y y y H J K L P P P P P P Z _ j p ` 3 X     ",
"        3 ' ] [ ( y y y y J R L E P P P P P P _ C p a 3 { {     ",
"        X 3 q ^ / ~ ~ ~ ~ } | b b b b b b b b j p ` 3 X { { {   ",
"            3 ' ] ! ! ! !  ...n n n n n n n n p a 3 { { { { {   ",
"            X 3 q m m m m m m m m m m m m m m ` 3 X { { { {     ",
"                3 M M M M M M M M M M M M M M 3                 ",
"                X X X X X X X X X X X X X X X X                 ",
"                                      { { {                     ",
"                                                                "
};
