/* XPM */
static char *result[] = {
/* columns rows colors chars-per-pixel */
"32 32 92 1 ",
"  c #A67D6F",
". c #A77F71",
"X c #A88474",
"o c #A98676",
"O c #AE8A75",
"+ c #A9867F",
"@ c #AE8B7F",
"# c #B79374",
"$ c #BC9773",
"% c #B6927D",
"& c #B7937D",
"* c #BC987C",
"= c #A98780",
"- c #B39285",
"; c #B99A83",
": c #B59889",
"> c #B79A89",
", c #B5988A",
"< c #B89C94",
"1 c #B89D94",
"2 c #BBA188",
"3 c #C4A587",
"4 c #C5A787",
"5 c #CAAE86",
"6 c #C8A88F",
"7 c #C7AA92",
"8 c #CEBC9D",
"9 c #D2B494",
"0 c #D4BA99",
"q c #D7BA98",
"w c #D7BB98",
"e c #D8BB98",
"r c #CDBBAF",
"t c #CEBDB1",
"y c #D3C09D",
"u c #DAC39F",
"i c #D8C59C",
"p c #D8C7A2",
"a c #DACEA7",
"s c #DCCFA7",
"d c #D8C6AF",
"f c #DFD2A7",
"g c #D3C1B0",
"h c #E2C8A1",
"j c #E8CFA6",
"k c #E1D4A6",
"l c #E0D5AC",
"z c #E0D7AD",
"x c #E9D1A8",
"c c #EAD6AB",
"v c #E5DBAD",
"b c #EBD8AC",
"n c #EDDEB1",
"m c #EBE2B5",
"M c #EEE3B5",
"N c #EDE9BA",
"B c #EEEABA",
"V c #F0E9B9",
"C c #F1EBBB",
"Z c #F2F0BE",
"A c #DACFC4",
"S c #DAD0C5",
"D c #DCD1C4",
"F c #DCD2C7",
"G c #DFD4C4",
"H c #E1D5C3",
"J c #E2D8C6",
"K c #F3E6C4",
"L c #F3EBC1",
"P c #F3E8C4",
"I c #F3E8C9",
"U c #F3E9C9",
"Y c #F3EBC8",
"T c #F3EFC8",
"R c #F3F0C0",
"E c #F3F1C0",
"W c #F3F2C0",
"Q c #F3F0C3",
"! c #F3F2C2",
"~ c #F3F2C7",
"^ c #F3ECD2",
"/ c #F3EDD7",
"( c #F3F3D1",
") c #F3F0D6",
"_ c #F3F1D6",
"` c #F3F3D6",
"' c #F3F1E0",
"] c #F3F4E0",
"[ c #F3F3E5",
"{ c #F3F4E5",
"} c #F3F4E7",
"| c None",
/* pixels */
"||||||||||||||||||||||||||||||||",
"||||||||||||||||||||||||||||||||",
"||||||||||||}}}}}}}}||||||||||||",
"||||||||||||JHHHHHHJ||||||||||||",
"||||||||||}J7******7J}||||||||||",
"||||||||||Jd4$$$$$$4dJ||||||||||",
"||||||||}J74ikkkkkki47J}||||||||",
"||||||||Jd45vERQ~~!v53gF||||||||",
"||||||}J74ivBRLY_`~Bvy><F}||||||",
"||||||Jd45v!~TPI/_~WWl;-rF||||||",
"||||}J74ivB~`)UKIYQWWmu6-<F}||||",
"||||}H*$k!~(]'^UPLRWWVb9 =S}||||",
"||||}H*$k~`]{[')TREWWVb9 =S}||||",
"||||Jd45v~_'[{]`~WWWWVbw%-rF||||",
"||}J74ivBQY^'](~!WWWWVbhe6-<F}||",
"||}G&#fWWRLY_`~WWWWZCMcjj9 =S}||",
"||}D@OsWWERQ~~!WWWWCncxjj9 =S}||",
"||}A+oaWWWWWWWWWWWWVbjjjj9 =S}||",
"||}A+oaWWWWWWWWWWWWVbjjjj9 =S}||",
"||}A+oaWWWWWWWWWWZCMcjjjj9 =S}||",
"||}A+oaWWWWWWWWWWCncxjjjj9 =S}||",
"||}A+oaWWWWWWWWZCMcjjjjjj9 =S}||",
"||}A+oaWWWWWWWWCncxjjjjjj9 =S}||",
"||}F<,8zNWWWWZCMcjjjjjjhq6-1F}||",
"||||Ft:2zWWWWCncxjjjjjjq%-rF||||",
"||||}F<,8aaaap0999999996-1F}||||",
"||||||Ft:ooooX.        -rF||||||",
"||||||}F<==============1F}||||||",
"||||||||FSSSSSSSSSSSSSSF||||||||",
"||||||||}}}}}}}}}}}}}}}}||||||||",
"||||||||||||||||||||||||||||||||",
"||||||||||||||||||||||||||||||||"
};
